solid OpenSCAD_Model
  facet normal -0.866025 -0.5 0
    outer loop
      vertex 4.875 7.5 3.5
      vertex 3.9375 9.1238 5.5
      vertex 3.9375 9.1238 3.5
    endloop
  endfacet
  facet normal -0.866025 -0.5 0
    outer loop
      vertex 3.9375 9.1238 5.5
      vertex 4.875 7.5 3.5
      vertex 4.875 7.5 5.5
    endloop
  endfacet
  facet normal -0.866025 -0.5 0
    outer loop
      vertex 4.875 7.5 12.5
      vertex 3.9375 9.1238 24
      vertex 3.9375 9.1238 12.5
    endloop
  endfacet
  facet normal -0.866025 -0.5 0
    outer loop
      vertex 3.9375 9.1238 24
      vertex 4.875 7.5 12.5
      vertex 4.875 7.5 24
    endloop
  endfacet
  facet normal 0 -1 0
    outer loop
      vertex 2.0625 9.1238 3.5
      vertex 3.9375 9.1238 5.5
      vertex 2.0625 9.1238 5.5
    endloop
  endfacet
  facet normal 0 -1 -0
    outer loop
      vertex 3.9375 9.1238 5.5
      vertex 2.0625 9.1238 3.5
      vertex 3.9375 9.1238 3.5
    endloop
  endfacet
  facet normal 0 -1 0
    outer loop
      vertex 2.0625 9.1238 12.5
      vertex 3.9375 9.1238 24
      vertex 2.0625 9.1238 24
    endloop
  endfacet
  facet normal 0 -1 -0
    outer loop
      vertex 3.9375 9.1238 24
      vertex 2.0625 9.1238 12.5
      vertex 3.9375 9.1238 12.5
    endloop
  endfacet
  facet normal 0 1 -0
    outer loop
      vertex 3.9375 5.8762 3.5
      vertex 2.0625 5.8762 5.5
      vertex 3.9375 5.8762 5.5
    endloop
  endfacet
  facet normal 0 1 0
    outer loop
      vertex 2.0625 5.8762 5.5
      vertex 3.9375 5.8762 3.5
      vertex 2.0625 5.8762 3.5
    endloop
  endfacet
  facet normal 0 1 -0
    outer loop
      vertex 3.9375 5.8762 12.5
      vertex 2.0625 5.8762 24
      vertex 3.9375 5.8762 24
    endloop
  endfacet
  facet normal 0 1 0
    outer loop
      vertex 2.0625 5.8762 24
      vertex 3.9375 5.8762 12.5
      vertex 2.0625 5.8762 12.5
    endloop
  endfacet
  facet normal 0.866025 -0.5 0
    outer loop
      vertex 1.125 7.5 5.5
      vertex 2.0625 9.1238 3.5
      vertex 2.0625 9.1238 5.5
    endloop
  endfacet
  facet normal 0.866025 -0.5 0
    outer loop
      vertex 2.0625 9.1238 3.5
      vertex 1.125 7.5 5.5
      vertex 1.125 7.5 3.5
    endloop
  endfacet
  facet normal 0.866025 -0.5 0
    outer loop
      vertex 1.125 7.5 24
      vertex 2.0625 9.1238 12.5
      vertex 2.0625 9.1238 24
    endloop
  endfacet
  facet normal 0.866025 -0.5 0
    outer loop
      vertex 2.0625 9.1238 12.5
      vertex 1.125 7.5 24
      vertex 1.125 7.5 12.5
    endloop
  endfacet
  facet normal -0.866026 0.5 0
    outer loop
      vertex 3.9375 5.8762 3.5
      vertex 4.875 7.5 5.5
      vertex 4.875 7.5 3.5
    endloop
  endfacet
  facet normal -0.866026 0.5 0
    outer loop
      vertex 4.875 7.5 5.5
      vertex 3.9375 5.8762 3.5
      vertex 3.9375 5.8762 5.5
    endloop
  endfacet
  facet normal -0.866026 0.5 0
    outer loop
      vertex 3.9375 5.8762 12.5
      vertex 4.875 7.5 24
      vertex 4.875 7.5 12.5
    endloop
  endfacet
  facet normal -0.866026 0.5 0
    outer loop
      vertex 4.875 7.5 24
      vertex 3.9375 5.8762 12.5
      vertex 3.9375 5.8762 24
    endloop
  endfacet
  facet normal 0.866026 0.499999 0
    outer loop
      vertex 2.0625 5.8762 5.5
      vertex 1.125 7.5 3.5
      vertex 1.125 7.5 5.5
    endloop
  endfacet
  facet normal 0.866026 0.499999 0
    outer loop
      vertex 1.125 7.5 3.5
      vertex 2.0625 5.8762 5.5
      vertex 2.0625 5.8762 3.5
    endloop
  endfacet
  facet normal 0.866026 0.499999 0
    outer loop
      vertex 2.0625 5.8762 24
      vertex 1.125 7.5 12.5
      vertex 1.125 7.5 24
    endloop
  endfacet
  facet normal 0.866026 0.499999 0
    outer loop
      vertex 1.125 7.5 12.5
      vertex 2.0625 5.8762 24
      vertex 2.0625 5.8762 12.5
    endloop
  endfacet
  facet normal -0.866026 -0.5 0
    outer loop
      vertex 4.875 -7.5 3.5
      vertex 3.9375 -5.8762 5.5
      vertex 3.9375 -5.8762 3.5
    endloop
  endfacet
  facet normal -0.866026 -0.5 0
    outer loop
      vertex 3.9375 -5.8762 5.5
      vertex 4.875 -7.5 3.5
      vertex 4.875 -7.5 5.5
    endloop
  endfacet
  facet normal -0.866026 -0.5 0
    outer loop
      vertex 4.875 -7.5 12.5
      vertex 3.9375 -5.8762 24
      vertex 3.9375 -5.8762 12.5
    endloop
  endfacet
  facet normal -0.866026 -0.5 0
    outer loop
      vertex 3.9375 -5.8762 24
      vertex 4.875 -7.5 12.5
      vertex 4.875 -7.5 24
    endloop
  endfacet
  facet normal 0.866026 0.5 0
    outer loop
      vertex 2.0625 -9.1238 5.5
      vertex 1.125 -7.5 3.5
      vertex 1.125 -7.5 5.5
    endloop
  endfacet
  facet normal 0.866026 0.5 0
    outer loop
      vertex 1.125 -7.5 3.5
      vertex 2.0625 -9.1238 5.5
      vertex 2.0625 -9.1238 3.5
    endloop
  endfacet
  facet normal 0.866026 0.5 0
    outer loop
      vertex 2.0625 -9.1238 24
      vertex 1.125 -7.5 12.5
      vertex 1.125 -7.5 24
    endloop
  endfacet
  facet normal 0.866026 0.5 0
    outer loop
      vertex 1.125 -7.5 12.5
      vertex 2.0625 -9.1238 24
      vertex 2.0625 -9.1238 12.5
    endloop
  endfacet
  facet normal 0 -1 0
    outer loop
      vertex 2.0625 -5.8762 3.5
      vertex 3.9375 -5.8762 5.5
      vertex 2.0625 -5.8762 5.5
    endloop
  endfacet
  facet normal 0 -1 -0
    outer loop
      vertex 3.9375 -5.8762 5.5
      vertex 2.0625 -5.8762 3.5
      vertex 3.9375 -5.8762 3.5
    endloop
  endfacet
  facet normal 0 -1 0
    outer loop
      vertex 2.0625 -5.8762 12.5
      vertex 3.9375 -5.8762 24
      vertex 2.0625 -5.8762 24
    endloop
  endfacet
  facet normal 0 -1 -0
    outer loop
      vertex 3.9375 -5.8762 24
      vertex 2.0625 -5.8762 12.5
      vertex 3.9375 -5.8762 12.5
    endloop
  endfacet
  facet normal 0 1 -0
    outer loop
      vertex 3.9375 -9.1238 3.5
      vertex 2.0625 -9.1238 5.5
      vertex 3.9375 -9.1238 5.5
    endloop
  endfacet
  facet normal 0 1 0
    outer loop
      vertex 2.0625 -9.1238 5.5
      vertex 3.9375 -9.1238 3.5
      vertex 2.0625 -9.1238 3.5
    endloop
  endfacet
  facet normal 0 1 -0
    outer loop
      vertex 3.9375 -9.1238 12.5
      vertex 2.0625 -9.1238 24
      vertex 3.9375 -9.1238 24
    endloop
  endfacet
  facet normal 0 1 0
    outer loop
      vertex 2.0625 -9.1238 24
      vertex 3.9375 -9.1238 12.5
      vertex 2.0625 -9.1238 12.5
    endloop
  endfacet
  facet normal 0.866026 -0.5 0
    outer loop
      vertex 1.125 -7.5 5.5
      vertex 2.0625 -5.8762 3.5
      vertex 2.0625 -5.8762 5.5
    endloop
  endfacet
  facet normal 0.866026 -0.5 0
    outer loop
      vertex 2.0625 -5.8762 3.5
      vertex 1.125 -7.5 5.5
      vertex 1.125 -7.5 3.5
    endloop
  endfacet
  facet normal 0.866026 -0.5 0
    outer loop
      vertex 1.125 -7.5 24
      vertex 2.0625 -5.8762 12.5
      vertex 2.0625 -5.8762 24
    endloop
  endfacet
  facet normal 0.866026 -0.5 0
    outer loop
      vertex 2.0625 -5.8762 12.5
      vertex 1.125 -7.5 24
      vertex 1.125 -7.5 12.5
    endloop
  endfacet
  facet normal -0.866025 0.5 0
    outer loop
      vertex 3.9375 -9.1238 3.5
      vertex 4.875 -7.5 5.5
      vertex 4.875 -7.5 3.5
    endloop
  endfacet
  facet normal -0.866025 0.5 0
    outer loop
      vertex 4.875 -7.5 5.5
      vertex 3.9375 -9.1238 3.5
      vertex 3.9375 -9.1238 5.5
    endloop
  endfacet
  facet normal -0.866025 0.5 0
    outer loop
      vertex 3.9375 -9.1238 12.5
      vertex 4.875 -7.5 24
      vertex 4.875 -7.5 12.5
    endloop
  endfacet
  facet normal -0.866025 0.5 0
    outer loop
      vertex 4.875 -7.5 24
      vertex 3.9375 -9.1238 12.5
      vertex 3.9375 -9.1238 24
    endloop
  endfacet
  facet normal -0.866025 -0.5 0
    outer loop
      vertex 6.5 7.5 1
      vertex 4.75 10.5311 3.5
      vertex 4.75 10.5311 1
    endloop
  endfacet
  facet normal -0.866025 -0.5 0
    outer loop
      vertex 4.75 10.5311 3.5
      vertex 6.5 7.5 1
      vertex 6.5 7.5 3.5
    endloop
  endfacet
  facet normal 0.866026 0.5 0
    outer loop
      vertex 1.25 4.46891 3.5
      vertex -0.5 7.5 1
      vertex -0.5 7.5 3.5
    endloop
  endfacet
  facet normal 0.866026 0.5 0
    outer loop
      vertex -0.5 7.5 1
      vertex 1.25 4.46891 3.5
      vertex 1.25 4.46891 1
    endloop
  endfacet
  facet normal 0 -1 0
    outer loop
      vertex 1.25 10.5311 1
      vertex 4.75 10.5311 3.5
      vertex 1.25 10.5311 3.5
    endloop
  endfacet
  facet normal 0 -1 -0
    outer loop
      vertex 4.75 10.5311 3.5
      vertex 1.25 10.5311 1
      vertex 4.75 10.5311 1
    endloop
  endfacet
  facet normal 0 1 -0
    outer loop
      vertex 4.75 4.46891 1
      vertex 1.25 4.46891 3.5
      vertex 4.75 4.46891 3.5
    endloop
  endfacet
  facet normal 0 1 0
    outer loop
      vertex 1.25 4.46891 3.5
      vertex 4.75 4.46891 1
      vertex 1.25 4.46891 1
    endloop
  endfacet
  facet normal 0 0 -1
    outer loop
      vertex 4.75 4.46891 3.5
      vertex 4.875 7.5 3.5
      vertex 6.5 7.5 3.5
    endloop
  endfacet
  facet normal 0 0 -1
    outer loop
      vertex 4.75 4.46891 3.5
      vertex 3.9375 5.8762 3.5
      vertex 4.875 7.5 3.5
    endloop
  endfacet
  facet normal 0 0 -1
    outer loop
      vertex 4.75 4.46891 3.5
      vertex 2.0625 5.8762 3.5
      vertex 3.9375 5.8762 3.5
    endloop
  endfacet
  facet normal 0 0 -1
    outer loop
      vertex 1.25 4.46891 3.5
      vertex 2.0625 5.8762 3.5
      vertex 4.75 4.46891 3.5
    endloop
  endfacet
  facet normal 0 0 -1
    outer loop
      vertex 1.25 4.46891 3.5
      vertex 1.125 7.5 3.5
      vertex 2.0625 5.8762 3.5
    endloop
  endfacet
  facet normal -0 -0 -1
    outer loop
      vertex 1.125 7.5 3.5
      vertex 1.25 4.46891 3.5
      vertex -0.5 7.5 3.5
    endloop
  endfacet
  facet normal 0 0 -1
    outer loop
      vertex 4.875 7.5 3.5
      vertex 4.75 10.5311 3.5
      vertex 6.5 7.5 3.5
    endloop
  endfacet
  facet normal 0 0 -1
    outer loop
      vertex 3.9375 9.1238 3.5
      vertex 4.75 10.5311 3.5
      vertex 4.875 7.5 3.5
    endloop
  endfacet
  facet normal 0 0 -1
    outer loop
      vertex 2.0625 9.1238 3.5
      vertex 4.75 10.5311 3.5
      vertex 3.9375 9.1238 3.5
    endloop
  endfacet
  facet normal 0 0 -1
    outer loop
      vertex 2.0625 9.1238 3.5
      vertex 1.25 10.5311 3.5
      vertex 4.75 10.5311 3.5
    endloop
  endfacet
  facet normal 0 0 -1
    outer loop
      vertex 1.125 7.5 3.5
      vertex 1.25 10.5311 3.5
      vertex 2.0625 9.1238 3.5
    endloop
  endfacet
  facet normal 0 0 -1
    outer loop
      vertex 1.25 10.5311 3.5
      vertex 1.125 7.5 3.5
      vertex -0.5 7.5 3.5
    endloop
  endfacet
  facet normal 0.866025 -0.5 0
    outer loop
      vertex -0.5 7.5 3.5
      vertex 1.25 10.5311 1
      vertex 1.25 10.5311 3.5
    endloop
  endfacet
  facet normal 0.866025 -0.5 0
    outer loop
      vertex 1.25 10.5311 1
      vertex -0.5 7.5 3.5
      vertex -0.5 7.5 1
    endloop
  endfacet
  facet normal -0.866025 0.5 0
    outer loop
      vertex 4.75 4.46891 1
      vertex 6.5 7.5 3.5
      vertex 6.5 7.5 1
    endloop
  endfacet
  facet normal -0.866025 0.5 0
    outer loop
      vertex 6.5 7.5 3.5
      vertex 4.75 4.46891 1
      vertex 4.75 4.46891 3.5
    endloop
  endfacet
  facet normal -0.866025 -0.5 0
    outer loop
      vertex 6.5 -7.5 1
      vertex 4.75 -4.46891 3.5
      vertex 4.75 -4.46891 1
    endloop
  endfacet
  facet normal -0.866025 -0.5 0
    outer loop
      vertex 4.75 -4.46891 3.5
      vertex 6.5 -7.5 1
      vertex 6.5 -7.5 3.5
    endloop
  endfacet
  facet normal 0.866026 0.5 0
    outer loop
      vertex 1.25 -10.5311 3.5
      vertex -0.5 -7.5 1
      vertex -0.5 -7.5 3.5
    endloop
  endfacet
  facet normal 0.866026 0.5 0
    outer loop
      vertex -0.5 -7.5 1
      vertex 1.25 -10.5311 3.5
      vertex 1.25 -10.5311 1
    endloop
  endfacet
  facet normal 0 -1 0
    outer loop
      vertex 1.25 -4.46891 1
      vertex 4.75 -4.46891 3.5
      vertex 1.25 -4.46891 3.5
    endloop
  endfacet
  facet normal 0 -1 -0
    outer loop
      vertex 4.75 -4.46891 3.5
      vertex 1.25 -4.46891 1
      vertex 4.75 -4.46891 1
    endloop
  endfacet
  facet normal 0 1 -0
    outer loop
      vertex 4.75 -10.5311 1
      vertex 1.25 -10.5311 3.5
      vertex 4.75 -10.5311 3.5
    endloop
  endfacet
  facet normal 0 1 0
    outer loop
      vertex 1.25 -10.5311 3.5
      vertex 4.75 -10.5311 1
      vertex 1.25 -10.5311 1
    endloop
  endfacet
  facet normal 0 0 -1
    outer loop
      vertex 4.75 -10.5311 3.5
      vertex 4.875 -7.5 3.5
      vertex 6.5 -7.5 3.5
    endloop
  endfacet
  facet normal 0 0 -1
    outer loop
      vertex 4.75 -10.5311 3.5
      vertex 3.9375 -9.1238 3.5
      vertex 4.875 -7.5 3.5
    endloop
  endfacet
  facet normal 0 0 -1
    outer loop
      vertex 4.75 -10.5311 3.5
      vertex 2.0625 -9.1238 3.5
      vertex 3.9375 -9.1238 3.5
    endloop
  endfacet
  facet normal 0 0 -1
    outer loop
      vertex 1.25 -10.5311 3.5
      vertex 2.0625 -9.1238 3.5
      vertex 4.75 -10.5311 3.5
    endloop
  endfacet
  facet normal 0 0 -1
    outer loop
      vertex 1.25 -10.5311 3.5
      vertex 1.125 -7.5 3.5
      vertex 2.0625 -9.1238 3.5
    endloop
  endfacet
  facet normal -0 -0 -1
    outer loop
      vertex 1.125 -7.5 3.5
      vertex 1.25 -10.5311 3.5
      vertex -0.5 -7.5 3.5
    endloop
  endfacet
  facet normal 0 0 -1
    outer loop
      vertex 4.875 -7.5 3.5
      vertex 4.75 -4.46891 3.5
      vertex 6.5 -7.5 3.5
    endloop
  endfacet
  facet normal 0 0 -1
    outer loop
      vertex 3.9375 -5.8762 3.5
      vertex 4.75 -4.46891 3.5
      vertex 4.875 -7.5 3.5
    endloop
  endfacet
  facet normal 0 0 -1
    outer loop
      vertex 2.0625 -5.8762 3.5
      vertex 4.75 -4.46891 3.5
      vertex 3.9375 -5.8762 3.5
    endloop
  endfacet
  facet normal 0 0 -1
    outer loop
      vertex 2.0625 -5.8762 3.5
      vertex 1.25 -4.46891 3.5
      vertex 4.75 -4.46891 3.5
    endloop
  endfacet
  facet normal 0 0 -1
    outer loop
      vertex 1.125 -7.5 3.5
      vertex 1.25 -4.46891 3.5
      vertex 2.0625 -5.8762 3.5
    endloop
  endfacet
  facet normal 0 0 -1
    outer loop
      vertex 1.25 -4.46891 3.5
      vertex 1.125 -7.5 3.5
      vertex -0.5 -7.5 3.5
    endloop
  endfacet
  facet normal 0.866025 -0.5 0
    outer loop
      vertex -0.5 -7.5 3.5
      vertex 1.25 -4.46891 1
      vertex 1.25 -4.46891 3.5
    endloop
  endfacet
  facet normal 0.866025 -0.5 0
    outer loop
      vertex 1.25 -4.46891 1
      vertex -0.5 -7.5 3.5
      vertex -0.5 -7.5 1
    endloop
  endfacet
  facet normal -0.866025 0.5 0
    outer loop
      vertex 4.75 -10.5311 1
      vertex 6.5 -7.5 3.5
      vertex 6.5 -7.5 1
    endloop
  endfacet
  facet normal -0.866025 0.5 0
    outer loop
      vertex 6.5 -7.5 3.5
      vertex 4.75 -10.5311 1
      vertex 4.75 -10.5311 3.5
    endloop
  endfacet
  facet normal -1 0 0
    outer loop
      vertex -3 -15 1
      vertex -3 15 24
      vertex -3 15 1
    endloop
  endfacet
  facet normal -1 -0 0
    outer loop
      vertex -3 15 24
      vertex -3 -15 1
      vertex -3 -15 24
    endloop
  endfacet
  facet normal 0 0 -1
    outer loop
      vertex 4.75 -4.46891 1
      vertex 6.5 7.5 1
      vertex 6.5 -7.5 1
    endloop
  endfacet
  facet normal 0 0 -1
    outer loop
      vertex 4.75 -4.46891 1
      vertex 4.75 4.46891 1
      vertex 6.5 7.5 1
    endloop
  endfacet
  facet normal 0 0 -1
    outer loop
      vertex 1.25 -4.46891 1
      vertex 4.75 4.46891 1
      vertex 4.75 -4.46891 1
    endloop
  endfacet
  facet normal 0 0 -1
    outer loop
      vertex 1.25 -4.46891 1
      vertex 1.25 4.46891 1
      vertex 4.75 4.46891 1
    endloop
  endfacet
  facet normal 0 0 -1
    outer loop
      vertex -0.5 -7.5 1
      vertex 1.25 4.46891 1
      vertex 1.25 -4.46891 1
    endloop
  endfacet
  facet normal -0 0 -1
    outer loop
      vertex 1.25 4.46891 1
      vertex -0.5 -7.5 1
      vertex -0.5 7.5 1
    endloop
  endfacet
  facet normal 0 0 -1
    outer loop
      vertex 11 -15 1
      vertex 6.5 -7.5 1
      vertex 11 15 1
    endloop
  endfacet
  facet normal 0 0 -1
    outer loop
      vertex 11 -15 1
      vertex 4.75 -10.5311 1
      vertex 6.5 -7.5 1
    endloop
  endfacet
  facet normal 0 0 -1
    outer loop
      vertex -3 -15 1
      vertex 4.75 -10.5311 1
      vertex 11 -15 1
    endloop
  endfacet
  facet normal -0 0 -1
    outer loop
      vertex -0.5 -7.5 1
      vertex -3 -15 1
      vertex -0.5 7.5 1
    endloop
  endfacet
  facet normal -0 0 -1
    outer loop
      vertex 1.25 -10.5311 1
      vertex -3 -15 1
      vertex -0.5 -7.5 1
    endloop
  endfacet
  facet normal -0 0 -1
    outer loop
      vertex 4.75 -10.5311 1
      vertex -3 -15 1
      vertex 1.25 -10.5311 1
    endloop
  endfacet
  facet normal 0 0 -1
    outer loop
      vertex 6.5 7.5 1
      vertex 11 15 1
      vertex 6.5 -7.5 1
    endloop
  endfacet
  facet normal 0 0 -1
    outer loop
      vertex 4.75 10.5311 1
      vertex 11 15 1
      vertex 6.5 7.5 1
    endloop
  endfacet
  facet normal 0 0 -1
    outer loop
      vertex -3 15 1
      vertex 4.75 10.5311 1
      vertex 1.25 10.5311 1
    endloop
  endfacet
  facet normal 0 0 -1
    outer loop
      vertex 4.75 10.5311 1
      vertex -3 15 1
      vertex 11 15 1
    endloop
  endfacet
  facet normal 0 0 -1
    outer loop
      vertex -0.5 7.5 1
      vertex -3 15 1
      vertex 1.25 10.5311 1
    endloop
  endfacet
  facet normal 0 0 -1
    outer loop
      vertex -3 15 1
      vertex -0.5 7.5 1
      vertex -3 -15 1
    endloop
  endfacet
  facet normal 0 -1 0
    outer loop
      vertex 6.5 -15 12.5
      vertex -3 -15 24
      vertex -0.5 -15 12.5
    endloop
  endfacet
  facet normal 0 -1 0
    outer loop
      vertex -3 -15 1
      vertex -0.5 -15 12.5
      vertex -3 -15 24
    endloop
  endfacet
  facet normal 0 -1 -0
    outer loop
      vertex -0.5 -15 5.5
      vertex -3 -15 1
      vertex 6.5 -15 5.5
    endloop
  endfacet
  facet normal 0 -1 -0
    outer loop
      vertex -0.5 -15 12.5
      vertex -3 -15 1
      vertex -0.5 -15 5.5
    endloop
  endfacet
  facet normal 0 -1 0
    outer loop
      vertex -3 -15 24
      vertex 6.5 -15 12.5
      vertex 11 -15 24
    endloop
  endfacet
  facet normal 0 -1 0
    outer loop
      vertex 11 -15 1
      vertex 6.5 -15 12.5
      vertex 6.5 -15 5.5
    endloop
  endfacet
  facet normal 0 -1 0
    outer loop
      vertex 6.5 -15 12.5
      vertex 11 -15 1
      vertex 11 -15 24
    endloop
  endfacet
  facet normal 0 -1 0
    outer loop
      vertex 11 -15 1
      vertex 6.5 -15 5.5
      vertex -3 -15 1
    endloop
  endfacet
  facet normal -0 0 1
    outer loop
      vertex 3.9375 5.8762 24
      vertex 4.875 -7.5 24
      vertex 4.875 7.5 24
    endloop
  endfacet
  facet normal 0 0 1
    outer loop
      vertex 3.9375 5.8762 24
      vertex 3.9375 -5.8762 24
      vertex 4.875 -7.5 24
    endloop
  endfacet
  facet normal 0 0 1
    outer loop
      vertex 3.9375 5.8762 24
      vertex 2.0625 -5.8762 24
      vertex 3.9375 -5.8762 24
    endloop
  endfacet
  facet normal -0 0 1
    outer loop
      vertex 2.0625 5.8762 24
      vertex 2.0625 -5.8762 24
      vertex 3.9375 5.8762 24
    endloop
  endfacet
  facet normal 0 0 1
    outer loop
      vertex 1.125 7.5 24
      vertex 2.0625 -5.8762 24
      vertex 2.0625 5.8762 24
    endloop
  endfacet
  facet normal 0 0 1
    outer loop
      vertex 2.0625 -5.8762 24
      vertex 1.125 7.5 24
      vertex 1.125 -7.5 24
    endloop
  endfacet
  facet normal 0 0 1
    outer loop
      vertex 11 15 24
      vertex 4.875 7.5 24
      vertex 11 -15 24
    endloop
  endfacet
  facet normal 0 0 1
    outer loop
      vertex 11 15 24
      vertex 3.9375 9.1238 24
      vertex 4.875 7.5 24
    endloop
  endfacet
  facet normal -0 0 1
    outer loop
      vertex -3 15 24
      vertex 3.9375 9.1238 24
      vertex 11 15 24
    endloop
  endfacet
  facet normal 0 0 1
    outer loop
      vertex 1.125 7.5 24
      vertex -3 15 24
      vertex 1.125 -7.5 24
    endloop
  endfacet
  facet normal 0 0 1
    outer loop
      vertex 2.0625 9.1238 24
      vertex -3 15 24
      vertex 1.125 7.5 24
    endloop
  endfacet
  facet normal 0 0 1
    outer loop
      vertex 3.9375 9.1238 24
      vertex -3 15 24
      vertex 2.0625 9.1238 24
    endloop
  endfacet
  facet normal -0 0 1
    outer loop
      vertex 4.875 -7.5 24
      vertex 11 -15 24
      vertex 4.875 7.5 24
    endloop
  endfacet
  facet normal -0 0 1
    outer loop
      vertex 3.9375 -9.1238 24
      vertex 11 -15 24
      vertex 4.875 -7.5 24
    endloop
  endfacet
  facet normal 0 0 1
    outer loop
      vertex -3 -15 24
      vertex 3.9375 -9.1238 24
      vertex 2.0625 -9.1238 24
    endloop
  endfacet
  facet normal 0 0 1
    outer loop
      vertex 3.9375 -9.1238 24
      vertex -3 -15 24
      vertex 11 -15 24
    endloop
  endfacet
  facet normal 0 0 1
    outer loop
      vertex 1.125 -7.5 24
      vertex -3 -15 24
      vertex 2.0625 -9.1238 24
    endloop
  endfacet
  facet normal 0 0 1
    outer loop
      vertex -3 -15 24
      vertex 1.125 -7.5 24
      vertex -3 15 24
    endloop
  endfacet
  facet normal 0 1 0
    outer loop
      vertex 11 15 24
      vertex 6.5 15 12.5
      vertex -3 15 24
    endloop
  endfacet
  facet normal 0 1 -0
    outer loop
      vertex 11 15 1
      vertex 6.5 15 12.5
      vertex 11 15 24
    endloop
  endfacet
  facet normal 0 1 0
    outer loop
      vertex -3 15 1
      vertex 6.5 15 5.5
      vertex 11 15 1
    endloop
  endfacet
  facet normal 0 1 0
    outer loop
      vertex 6.5 15 12.5
      vertex 11 15 1
      vertex 6.5 15 5.5
    endloop
  endfacet
  facet normal 0 1 -0
    outer loop
      vertex -0.5 15 12.5
      vertex -3 15 24
      vertex 6.5 15 12.5
    endloop
  endfacet
  facet normal 0 1 0
    outer loop
      vertex -3 15 1
      vertex -0.5 15 12.5
      vertex -0.5 15 5.5
    endloop
  endfacet
  facet normal 0 1 0
    outer loop
      vertex -0.5 15 12.5
      vertex -3 15 1
      vertex -3 15 24
    endloop
  endfacet
  facet normal 0 1 0
    outer loop
      vertex 6.5 15 5.5
      vertex -3 15 1
      vertex -0.5 15 5.5
    endloop
  endfacet
  facet normal 1 -0 0
    outer loop
      vertex 11 -15 24
      vertex 11 15 1
      vertex 11 15 24
    endloop
  endfacet
  facet normal 1 0 0
    outer loop
      vertex 11 15 1
      vertex 11 -15 24
      vertex 11 -15 1
    endloop
  endfacet
  facet normal 1 -0 0
    outer loop
      vertex -0.5 -15 12.5
      vertex -0.5 15 5.5
      vertex -0.5 15 12.5
    endloop
  endfacet
  facet normal 1 0 0
    outer loop
      vertex -0.5 15 5.5
      vertex -0.5 -15 12.5
      vertex -0.5 -15 5.5
    endloop
  endfacet
  facet normal 0 0 -1
    outer loop
      vertex 3.9375 -5.8762 12.5
      vertex 4.875 7.5 12.5
      vertex 4.875 -7.5 12.5
    endloop
  endfacet
  facet normal 0 0 -1
    outer loop
      vertex 3.9375 -5.8762 12.5
      vertex 3.9375 5.8762 12.5
      vertex 4.875 7.5 12.5
    endloop
  endfacet
  facet normal 0 0 -1
    outer loop
      vertex 2.0625 -5.8762 12.5
      vertex 3.9375 5.8762 12.5
      vertex 3.9375 -5.8762 12.5
    endloop
  endfacet
  facet normal 0 0 -1
    outer loop
      vertex 2.0625 -5.8762 12.5
      vertex 2.0625 5.8762 12.5
      vertex 3.9375 5.8762 12.5
    endloop
  endfacet
  facet normal 0 0 -1
    outer loop
      vertex 1.125 -7.5 12.5
      vertex 2.0625 5.8762 12.5
      vertex 2.0625 -5.8762 12.5
    endloop
  endfacet
  facet normal -0 0 -1
    outer loop
      vertex 2.0625 5.8762 12.5
      vertex 1.125 -7.5 12.5
      vertex 1.125 7.5 12.5
    endloop
  endfacet
  facet normal 0 0 -1
    outer loop
      vertex 6.5 -15 12.5
      vertex 4.875 -7.5 12.5
      vertex 6.5 15 12.5
    endloop
  endfacet
  facet normal 0 0 -1
    outer loop
      vertex 6.5 -15 12.5
      vertex 3.9375 -9.1238 12.5
      vertex 4.875 -7.5 12.5
    endloop
  endfacet
  facet normal 0 0 -1
    outer loop
      vertex 6.5 -15 12.5
      vertex 2.0625 -9.1238 12.5
      vertex 3.9375 -9.1238 12.5
    endloop
  endfacet
  facet normal -0 0 -1
    outer loop
      vertex 1.125 -7.5 12.5
      vertex -0.5 -15 12.5
      vertex 1.125 7.5 12.5
    endloop
  endfacet
  facet normal -0 0 -1
    outer loop
      vertex 2.0625 -9.1238 12.5
      vertex -0.5 -15 12.5
      vertex 1.125 -7.5 12.5
    endloop
  endfacet
  facet normal 0 0 -1
    outer loop
      vertex -0.5 -15 12.5
      vertex 2.0625 -9.1238 12.5
      vertex 6.5 -15 12.5
    endloop
  endfacet
  facet normal 0 0 -1
    outer loop
      vertex 4.875 7.5 12.5
      vertex 6.5 15 12.5
      vertex 4.875 -7.5 12.5
    endloop
  endfacet
  facet normal 0 0 -1
    outer loop
      vertex 3.9375 9.1238 12.5
      vertex 6.5 15 12.5
      vertex 4.875 7.5 12.5
    endloop
  endfacet
  facet normal 0 0 -1
    outer loop
      vertex 2.0625 9.1238 12.5
      vertex 6.5 15 12.5
      vertex 3.9375 9.1238 12.5
    endloop
  endfacet
  facet normal 0 0 -1
    outer loop
      vertex 2.0625 9.1238 12.5
      vertex -0.5 15 12.5
      vertex 6.5 15 12.5
    endloop
  endfacet
  facet normal 0 0 -1
    outer loop
      vertex 1.125 7.5 12.5
      vertex -0.5 15 12.5
      vertex 2.0625 9.1238 12.5
    endloop
  endfacet
  facet normal 0 0 -1
    outer loop
      vertex -0.5 15 12.5
      vertex 1.125 7.5 12.5
      vertex -0.5 -15 12.5
    endloop
  endfacet
  facet normal -1 0 0
    outer loop
      vertex 6.5 -15 5.5
      vertex 6.5 15 12.5
      vertex 6.5 15 5.5
    endloop
  endfacet
  facet normal -1 -0 0
    outer loop
      vertex 6.5 15 12.5
      vertex 6.5 -15 5.5
      vertex 6.5 -15 12.5
    endloop
  endfacet
  facet normal -0 0 1
    outer loop
      vertex 3.9375 5.8762 5.5
      vertex 4.875 -7.5 5.5
      vertex 4.875 7.5 5.5
    endloop
  endfacet
  facet normal 0 0 1
    outer loop
      vertex 3.9375 5.8762 5.5
      vertex 3.9375 -5.8762 5.5
      vertex 4.875 -7.5 5.5
    endloop
  endfacet
  facet normal 0 0 1
    outer loop
      vertex 3.9375 5.8762 5.5
      vertex 2.0625 -5.8762 5.5
      vertex 3.9375 -5.8762 5.5
    endloop
  endfacet
  facet normal -0 0 1
    outer loop
      vertex 2.0625 5.8762 5.5
      vertex 2.0625 -5.8762 5.5
      vertex 3.9375 5.8762 5.5
    endloop
  endfacet
  facet normal 0 0 1
    outer loop
      vertex 1.125 7.5 5.5
      vertex 2.0625 -5.8762 5.5
      vertex 2.0625 5.8762 5.5
    endloop
  endfacet
  facet normal 0 0 1
    outer loop
      vertex 2.0625 -5.8762 5.5
      vertex 1.125 7.5 5.5
      vertex 1.125 -7.5 5.5
    endloop
  endfacet
  facet normal 0 0 1
    outer loop
      vertex 6.5 15 5.5
      vertex 4.875 7.5 5.5
      vertex 6.5 -15 5.5
    endloop
  endfacet
  facet normal 0 0 1
    outer loop
      vertex 6.5 15 5.5
      vertex 3.9375 9.1238 5.5
      vertex 4.875 7.5 5.5
    endloop
  endfacet
  facet normal 0 0 1
    outer loop
      vertex 6.5 15 5.5
      vertex 2.0625 9.1238 5.5
      vertex 3.9375 9.1238 5.5
    endloop
  endfacet
  facet normal 0 0 1
    outer loop
      vertex 1.125 7.5 5.5
      vertex -0.5 15 5.5
      vertex 1.125 -7.5 5.5
    endloop
  endfacet
  facet normal 0 0 1
    outer loop
      vertex 2.0625 9.1238 5.5
      vertex -0.5 15 5.5
      vertex 1.125 7.5 5.5
    endloop
  endfacet
  facet normal -0 0 1
    outer loop
      vertex -0.5 15 5.5
      vertex 2.0625 9.1238 5.5
      vertex 6.5 15 5.5
    endloop
  endfacet
  facet normal -0 0 1
    outer loop
      vertex 4.875 -7.5 5.5
      vertex 6.5 -15 5.5
      vertex 4.875 7.5 5.5
    endloop
  endfacet
  facet normal -0 0 1
    outer loop
      vertex 3.9375 -9.1238 5.5
      vertex 6.5 -15 5.5
      vertex 4.875 -7.5 5.5
    endloop
  endfacet
  facet normal -0 0 1
    outer loop
      vertex 2.0625 -9.1238 5.5
      vertex 6.5 -15 5.5
      vertex 3.9375 -9.1238 5.5
    endloop
  endfacet
  facet normal 0 0 1
    outer loop
      vertex 2.0625 -9.1238 5.5
      vertex -0.5 -15 5.5
      vertex 6.5 -15 5.5
    endloop
  endfacet
  facet normal 0 0 1
    outer loop
      vertex 1.125 -7.5 5.5
      vertex -0.5 -15 5.5
      vertex 2.0625 -9.1238 5.5
    endloop
  endfacet
  facet normal 0 0 1
    outer loop
      vertex -0.5 -15 5.5
      vertex 1.125 -7.5 5.5
      vertex -0.5 15 5.5
    endloop
  endfacet
endsolid OpenSCAD_Model
