solid OpenSCAD_Model
  facet normal -1 0 0
    outer loop
      vertex 110.5 98.15 261
      vertex 110.5 94.15 267
      vertex 110.5 98.15 297
    endloop
  endfacet
  facet normal -1 0 0
    outer loop
      vertex 110.5 56.15 261
      vertex 110.5 94.15 267
      vertex 110.5 98.15 261
    endloop
  endfacet
  facet normal -1 -0 0
    outer loop
      vertex 110.5 94.15 267
      vertex 110.5 56.15 261
      vertex 110.5 56.15 267
    endloop
  endfacet
  facet normal -1 -0 0
    outer loop
      vertex 110.5 98.15 297
      vertex 110.5 94.15 267
      vertex 110.5 94.15 297
    endloop
  endfacet
  facet normal 0 0 1
    outer loop
      vertex 124.5 94.15 267
      vertex 122 66.15 267
      vertex 124.5 56.15 267
    endloop
  endfacet
  facet normal 0 0 1
    outer loop
      vertex 124.5 94.15 267
      vertex 121.611 67.9803 267
      vertex 122 66.15 267
    endloop
  endfacet
  facet normal 0 0 1
    outer loop
      vertex 124.5 94.15 267
      vertex 120.511 69.4941 267
      vertex 121.611 67.9803 267
    endloop
  endfacet
  facet normal 0 0 1
    outer loop
      vertex 124.5 94.15 267
      vertex 118.891 70.4298 267
      vertex 120.511 69.4941 267
    endloop
  endfacet
  facet normal 0 0 1
    outer loop
      vertex 124.5 94.15 267
      vertex 117.03 70.6254 267
      vertex 118.891 70.4298 267
    endloop
  endfacet
  facet normal -0 0 1
    outer loop
      vertex 110.5 94.15 267
      vertex 117.03 70.6254 267
      vertex 124.5 94.15 267
    endloop
  endfacet
  facet normal 0 0 1
    outer loop
      vertex 117.03 70.6254 267
      vertex 110.5 94.15 267
      vertex 115.25 70.0471 267
    endloop
  endfacet
  facet normal 0 0 1
    outer loop
      vertex 115.25 70.0471 267
      vertex 110.5 94.15 267
      vertex 113.859 68.795 267
    endloop
  endfacet
  facet normal 0 0 1
    outer loop
      vertex 110.5 56.15 267
      vertex 113.098 67.0856 267
      vertex 110.5 94.15 267
    endloop
  endfacet
  facet normal 0 0 1
    outer loop
      vertex 113.859 68.795 267
      vertex 110.5 94.15 267
      vertex 113.098 67.0856 267
    endloop
  endfacet
  facet normal -0 0 1
    outer loop
      vertex 121.611 64.3197 267
      vertex 124.5 56.15 267
      vertex 122 66.15 267
    endloop
  endfacet
  facet normal -0 0 1
    outer loop
      vertex 120.511 62.8058 267
      vertex 124.5 56.15 267
      vertex 121.611 64.3197 267
    endloop
  endfacet
  facet normal -0 0 1
    outer loop
      vertex 118.891 61.8702 267
      vertex 124.5 56.15 267
      vertex 120.511 62.8058 267
    endloop
  endfacet
  facet normal -0 0 1
    outer loop
      vertex 117.03 61.6747 267
      vertex 124.5 56.15 267
      vertex 118.891 61.8702 267
    endloop
  endfacet
  facet normal 0 0 1
    outer loop
      vertex 110.5 56.15 267
      vertex 117.03 61.6747 267
      vertex 115.25 62.2529 267
    endloop
  endfacet
  facet normal 0 0 1
    outer loop
      vertex 117.03 61.6747 267
      vertex 110.5 56.15 267
      vertex 124.5 56.15 267
    endloop
  endfacet
  facet normal 0 0 1
    outer loop
      vertex 113.859 63.505 267
      vertex 110.5 56.15 267
      vertex 115.25 62.2529 267
    endloop
  endfacet
  facet normal 0 0 1
    outer loop
      vertex 113.098 65.2144 267
      vertex 110.5 56.15 267
      vertex 113.859 63.505 267
    endloop
  endfacet
  facet normal 0 0 1
    outer loop
      vertex 113.098 67.0856 267
      vertex 110.5 56.15 267
      vertex 113.098 65.2144 267
    endloop
  endfacet
  facet normal 1 0 0
    outer loop
      vertex 124.5 94.15 267
      vertex 124.5 98.15 297
      vertex 124.5 94.15 297
    endloop
  endfacet
  facet normal 1 0 0
    outer loop
      vertex 124.5 98.15 297
      vertex 124.5 94.15 267
      vertex 124.5 98.15 261
    endloop
  endfacet
  facet normal 1 0 0
    outer loop
      vertex 124.5 56.15 261
      vertex 124.5 94.15 267
      vertex 124.5 56.15 267
    endloop
  endfacet
  facet normal 1 0 0
    outer loop
      vertex 124.5 94.15 267
      vertex 124.5 56.15 261
      vertex 124.5 98.15 261
    endloop
  endfacet
  facet normal 0 0 -1
    outer loop
      vertex 124.5 56.15 261
      vertex 122 66.15 261
      vertex 124.5 98.15 261
    endloop
  endfacet
  facet normal 0 0 -1
    outer loop
      vertex 124.5 56.15 261
      vertex 121.611 64.3197 261
      vertex 122 66.15 261
    endloop
  endfacet
  facet normal 0 0 -1
    outer loop
      vertex 124.5 56.15 261
      vertex 120.511 62.8058 261
      vertex 121.611 64.3197 261
    endloop
  endfacet
  facet normal 0 0 -1
    outer loop
      vertex 124.5 56.15 261
      vertex 118.891 61.8702 261
      vertex 120.511 62.8058 261
    endloop
  endfacet
  facet normal 0 0 -1
    outer loop
      vertex 124.5 56.15 261
      vertex 117.03 61.6747 261
      vertex 118.891 61.8702 261
    endloop
  endfacet
  facet normal 0 0 -1
    outer loop
      vertex 110.5 56.15 261
      vertex 117.03 61.6747 261
      vertex 124.5 56.15 261
    endloop
  endfacet
  facet normal -0 0 -1
    outer loop
      vertex 113.098 65.2144 261
      vertex 110.5 56.15 261
      vertex 113.098 67.0856 261
    endloop
  endfacet
  facet normal -0 0 -1
    outer loop
      vertex 113.859 63.505 261
      vertex 110.5 56.15 261
      vertex 113.098 65.2144 261
    endloop
  endfacet
  facet normal -0 0 -1
    outer loop
      vertex 115.25 62.2529 261
      vertex 110.5 56.15 261
      vertex 113.859 63.505 261
    endloop
  endfacet
  facet normal -0 0 -1
    outer loop
      vertex 117.03 61.6747 261
      vertex 110.5 56.15 261
      vertex 115.25 62.2529 261
    endloop
  endfacet
  facet normal 0 0 -1
    outer loop
      vertex 121.611 67.9803 261
      vertex 124.5 98.15 261
      vertex 122 66.15 261
    endloop
  endfacet
  facet normal 0 0 -1
    outer loop
      vertex 120.511 69.4941 261
      vertex 124.5 98.15 261
      vertex 121.611 67.9803 261
    endloop
  endfacet
  facet normal 0 0 -1
    outer loop
      vertex 118.891 70.4298 261
      vertex 124.5 98.15 261
      vertex 120.511 69.4941 261
    endloop
  endfacet
  facet normal 0 0 -1
    outer loop
      vertex 117.03 70.6254 261
      vertex 124.5 98.15 261
      vertex 118.891 70.4298 261
    endloop
  endfacet
  facet normal 0 0 -1
    outer loop
      vertex 110.5 98.15 261
      vertex 117.03 70.6254 261
      vertex 115.25 70.0471 261
    endloop
  endfacet
  facet normal 0 0 -1
    outer loop
      vertex 110.5 98.15 261
      vertex 115.25 70.0471 261
      vertex 113.859 68.795 261
    endloop
  endfacet
  facet normal 0 0 -1
    outer loop
      vertex 110.5 98.15 261
      vertex 113.859 68.795 261
      vertex 113.098 67.0856 261
    endloop
  endfacet
  facet normal 0 0 -1
    outer loop
      vertex 117.03 70.6254 261
      vertex 110.5 98.15 261
      vertex 124.5 98.15 261
    endloop
  endfacet
  facet normal 0 0 -1
    outer loop
      vertex 110.5 98.15 261
      vertex 113.098 67.0856 261
      vertex 110.5 56.15 261
    endloop
  endfacet
  facet normal 0 -1 0
    outer loop
      vertex 110.5 56.15 261
      vertex 124.5 56.15 267
      vertex 110.5 56.15 267
    endloop
  endfacet
  facet normal 0 -1 -0
    outer loop
      vertex 124.5 56.15 267
      vertex 110.5 56.15 261
      vertex 124.5 56.15 261
    endloop
  endfacet
  facet normal -0 0 1
    outer loop
      vertex 110.5 98.15 297
      vertex 124.5 94.15 297
      vertex 124.5 98.15 297
    endloop
  endfacet
  facet normal 0 0 1
    outer loop
      vertex 124.5 94.15 297
      vertex 110.5 98.15 297
      vertex 110.5 94.15 297
    endloop
  endfacet
  facet normal 0 1 -0
    outer loop
      vertex 124.5 98.15 261
      vertex 110.5 98.15 297
      vertex 124.5 98.15 297
    endloop
  endfacet
  facet normal 0 1 0
    outer loop
      vertex 110.5 98.15 297
      vertex 124.5 98.15 261
      vertex 110.5 98.15 261
    endloop
  endfacet
  facet normal 0 -1 0
    outer loop
      vertex 110.5 94.15 267
      vertex 124.5 94.15 297
      vertex 110.5 94.15 297
    endloop
  endfacet
  facet normal 0 -1 -0
    outer loop
      vertex 124.5 94.15 297
      vertex 110.5 94.15 267
      vertex 124.5 94.15 267
    endloop
  endfacet
  facet normal -0.978148 -0.207912 0
    outer loop
      vertex 122 66.15 261
      vertex 121.611 67.9803 267
      vertex 121.611 67.9803 261
    endloop
  endfacet
  facet normal -0.978148 -0.207912 0
    outer loop
      vertex 121.611 67.9803 267
      vertex 122 66.15 261
      vertex 122 66.15 267
    endloop
  endfacet
  facet normal 1 -0 0
    outer loop
      vertex 113.098 65.2144 267
      vertex 113.098 67.0856 261
      vertex 113.098 67.0856 267
    endloop
  endfacet
  facet normal 1 0 0
    outer loop
      vertex 113.098 67.0856 261
      vertex 113.098 65.2144 267
      vertex 113.098 65.2144 261
    endloop
  endfacet
  facet normal -0.104528 -0.994522 0
    outer loop
      vertex 117.03 70.6254 261
      vertex 118.891 70.4298 267
      vertex 117.03 70.6254 267
    endloop
  endfacet
  facet normal -0.104528 -0.994522 -0
    outer loop
      vertex 118.891 70.4298 267
      vertex 117.03 70.6254 261
      vertex 118.891 70.4298 261
    endloop
  endfacet
  facet normal -0.104528 0.994522 0
    outer loop
      vertex 118.891 61.8702 261
      vertex 117.03 61.6747 267
      vertex 118.891 61.8702 267
    endloop
  endfacet
  facet normal -0.104528 0.994522 0
    outer loop
      vertex 117.03 61.6747 267
      vertex 118.891 61.8702 261
      vertex 117.03 61.6747 261
    endloop
  endfacet
  facet normal -0.500003 -0.866024 0
    outer loop
      vertex 118.891 70.4298 261
      vertex 120.511 69.4941 267
      vertex 118.891 70.4298 267
    endloop
  endfacet
  facet normal -0.500003 -0.866024 -0
    outer loop
      vertex 120.511 69.4941 267
      vertex 118.891 70.4298 261
      vertex 120.511 69.4941 261
    endloop
  endfacet
  facet normal -0.809016 -0.587787 0
    outer loop
      vertex 121.611 67.9803 261
      vertex 120.511 69.4941 267
      vertex 120.511 69.4941 261
    endloop
  endfacet
  facet normal -0.809016 -0.587787 0
    outer loop
      vertex 120.511 69.4941 267
      vertex 121.611 67.9803 261
      vertex 121.611 67.9803 267
    endloop
  endfacet
  facet normal 0.669128 -0.743147 0
    outer loop
      vertex 113.859 68.795 261
      vertex 115.25 70.0471 267
      vertex 113.859 68.795 267
    endloop
  endfacet
  facet normal 0.669128 -0.743147 0
    outer loop
      vertex 115.25 70.0471 267
      vertex 113.859 68.795 261
      vertex 115.25 70.0471 261
    endloop
  endfacet
  facet normal 0.913546 -0.406735 0
    outer loop
      vertex 113.098 67.0856 267
      vertex 113.859 68.795 261
      vertex 113.859 68.795 267
    endloop
  endfacet
  facet normal 0.913546 -0.406735 0
    outer loop
      vertex 113.859 68.795 261
      vertex 113.098 67.0856 267
      vertex 113.098 67.0856 261
    endloop
  endfacet
  facet normal 0.30902 -0.951055 0
    outer loop
      vertex 115.25 70.0471 261
      vertex 117.03 70.6254 267
      vertex 115.25 70.0471 267
    endloop
  endfacet
  facet normal 0.30902 -0.951055 0
    outer loop
      vertex 117.03 70.6254 267
      vertex 115.25 70.0471 261
      vertex 117.03 70.6254 261
    endloop
  endfacet
  facet normal 0.309017 0.951057 -0
    outer loop
      vertex 117.03 61.6747 261
      vertex 115.25 62.2529 267
      vertex 117.03 61.6747 267
    endloop
  endfacet
  facet normal 0.309017 0.951057 0
    outer loop
      vertex 115.25 62.2529 267
      vertex 117.03 61.6747 261
      vertex 115.25 62.2529 261
    endloop
  endfacet
  facet normal 0.913546 0.406736 0
    outer loop
      vertex 113.859 63.505 267
      vertex 113.098 65.2144 261
      vertex 113.098 65.2144 267
    endloop
  endfacet
  facet normal 0.913546 0.406736 0
    outer loop
      vertex 113.098 65.2144 261
      vertex 113.859 63.505 267
      vertex 113.859 63.505 261
    endloop
  endfacet
  facet normal -0.809017 0.587785 0
    outer loop
      vertex 120.511 62.8058 261
      vertex 121.611 64.3197 267
      vertex 121.611 64.3197 261
    endloop
  endfacet
  facet normal -0.809017 0.587785 0
    outer loop
      vertex 121.611 64.3197 267
      vertex 120.511 62.8058 261
      vertex 120.511 62.8058 267
    endloop
  endfacet
  facet normal -0.5 0.866025 0
    outer loop
      vertex 120.511 62.8058 261
      vertex 118.891 61.8702 267
      vertex 120.511 62.8058 267
    endloop
  endfacet
  facet normal -0.5 0.866025 0
    outer loop
      vertex 118.891 61.8702 267
      vertex 120.511 62.8058 261
      vertex 118.891 61.8702 261
    endloop
  endfacet
  facet normal -0.978148 0.207912 0
    outer loop
      vertex 121.611 64.3197 261
      vertex 122 66.15 267
      vertex 122 66.15 261
    endloop
  endfacet
  facet normal -0.978148 0.207912 0
    outer loop
      vertex 122 66.15 267
      vertex 121.611 64.3197 261
      vertex 121.611 64.3197 267
    endloop
  endfacet
  facet normal 0.669131 0.743145 -0
    outer loop
      vertex 115.25 62.2529 261
      vertex 113.859 63.505 267
      vertex 115.25 62.2529 267
    endloop
  endfacet
  facet normal 0.669131 0.743145 0
    outer loop
      vertex 113.859 63.505 267
      vertex 115.25 62.2529 261
      vertex 113.859 63.505 261
    endloop
  endfacet
endsolid OpenSCAD_Model
