solid OpenSCAD_Model
  facet normal 0.57206 -0.587788 0.57206
    outer loop
      vertex -28.7359 88.0766 -42.4491
      vertex -35.4534 88.0766 -35.7316
      vertex -35.6855 87.6248 -35.9637
    endloop
  endfacet
  facet normal 0.572062 -0.587784 0.572062
    outer loop
      vertex -29.4688 86.65 -43.182
      vertex -33.8583 87.5141 -37.9047
      vertex -36.1863 86.65 -36.4645
    endloop
  endfacet
  facet normal 0.572059 -0.587788 0.57206
    outer loop
      vertex -33.8583 87.5141 -37.9047
      vertex -29.4688 86.65 -43.182
      vertex -29.1874 87.1978 -42.9006
    endloop
  endfacet
  facet normal 0.572062 -0.587785 0.572061
    outer loop
      vertex -33.8583 87.5141 -37.9047
      vertex -35.6855 87.6248 -35.9637
      vertex -36.1863 86.65 -36.4645
    endloop
  endfacet
  facet normal 0.572059 -0.587791 0.572058
    outer loop
      vertex -33.8583 87.5141 -37.9047
      vertex -28.7359 88.0766 -42.4491
      vertex -35.6855 87.6248 -35.9637
    endloop
  endfacet
  facet normal 0.572062 -0.587783 0.572063
    outer loop
      vertex -28.7359 88.0766 -42.4491
      vertex -33.8583 87.5141 -37.9047
      vertex -28.8297 87.8939 -42.5429
    endloop
  endfacet
  facet normal -0.707106 -4.727e-07 0.707107
    outer loop
      vertex -28.8297 87.8939 -42.5429
      vertex -27.55 87.5317 -41.2632
      vertex -28.7359 88.0766 -42.4491
    endloop
  endfacet
  facet normal -0.707106 0 0.707107
    outer loop
      vertex -27.55 87.5317 -41.2632
      vertex -28.8297 87.2204 -42.5429
      vertex -27.55 85.7683 -41.2632
    endloop
  endfacet
  facet normal -0.707106 0 0.707107
    outer loop
      vertex -27.55 87.5317 -41.2632
      vertex -28.8297 87.8939 -42.5429
      vertex -28.8297 87.2204 -42.5429
    endloop
  endfacet
  facet normal -0.707106 5.23215e-08 0.707107
    outer loop
      vertex -27.55 85.7683 -41.2632
      vertex -28.8297 87.2204 -42.5429
      vertex -28.7359 85.2234 -42.4491
    endloop
  endfacet
  facet normal -0.707107 0 0.707107
    outer loop
      vertex -29.4688 86.65 -43.182
      vertex -28.8297 87.2204 -42.5429
      vertex -29.1874 87.1978 -42.9006
    endloop
  endfacet
  facet normal -0.707107 0 0.707107
    outer loop
      vertex -28.8297 87.2204 -42.5429
      vertex -29.4688 86.65 -43.182
      vertex -28.7359 85.2234 -42.4491
    endloop
  endfacet
  facet normal -0.707107 0 -0.707107
    outer loop
      vertex -27.55 85.7683 -41.2632
      vertex -34.2675 87.5317 -34.5457
      vertex -27.55 87.5317 -41.2632
    endloop
  endfacet
  facet normal -0.707107 -0 -0.707107
    outer loop
      vertex -34.2675 87.5317 -34.5457
      vertex -27.55 85.7683 -41.2632
      vertex -34.2675 85.7683 -34.5457
    endloop
  endfacet
  facet normal -0.218508 -0.951056 -0.218508
    outer loop
      vertex -35.4534 88.0766 -35.7316
      vertex -27.55 87.5317 -41.2632
      vertex -34.2675 87.5317 -34.5457
    endloop
  endfacet
  facet normal -0.218508 -0.951056 -0.218508
    outer loop
      vertex -27.55 87.5317 -41.2632
      vertex -35.4534 88.0766 -35.7316
      vertex -28.7359 88.0766 -42.4491
    endloop
  endfacet
  facet normal 0.572061 0.587786 0.572061
    outer loop
      vertex -29.4688 86.65 -43.182
      vertex -35.6855 85.6752 -35.9637
      vertex -28.7359 85.2234 -42.4491
    endloop
  endfacet
  facet normal 0.572061 0.587785 0.572061
    outer loop
      vertex -35.6855 85.6752 -35.9637
      vertex -29.4688 86.65 -43.182
      vertex -36.1863 86.65 -36.4645
    endloop
  endfacet
  facet normal 0.57206 0.587788 0.57206
    outer loop
      vertex -35.4534 85.2234 -35.7316
      vertex -28.7359 85.2234 -42.4491
      vertex -35.6855 85.6752 -35.9637
    endloop
  endfacet
  facet normal -0.218508 0.951056 -0.218508
    outer loop
      vertex -27.55 85.7683 -41.2632
      vertex -35.4534 85.2234 -35.7316
      vertex -34.2675 85.7683 -34.5457
    endloop
  endfacet
  facet normal -0.218508 0.951056 -0.218508
    outer loop
      vertex -35.4534 85.2234 -35.7316
      vertex -27.55 85.7683 -41.2632
      vertex -28.7359 85.2234 -42.4491
    endloop
  endfacet
  facet normal 0.57206 -0.587788 0.57206
    outer loop
      vertex -28.7359 112.077 -42.4491
      vertex -35.4534 112.077 -35.7316
      vertex -35.6855 111.625 -35.9637
    endloop
  endfacet
  facet normal 0.572061 -0.587785 0.572061
    outer loop
      vertex -29.4688 110.65 -43.182
      vertex -35.6855 111.625 -35.9637
      vertex -36.1863 110.65 -36.4645
    endloop
  endfacet
  facet normal 0.572061 -0.587786 0.572061
    outer loop
      vertex -35.6855 111.625 -35.9637
      vertex -29.4688 110.65 -43.182
      vertex -28.7359 112.077 -42.4491
    endloop
  endfacet
  facet normal -0.707106 -5.23213e-08 0.707107
    outer loop
      vertex -28.8297 110.08 -42.5429
      vertex -27.55 111.532 -41.2632
      vertex -28.7359 112.077 -42.4491
    endloop
  endfacet
  facet normal -0.707106 0 0.707107
    outer loop
      vertex -27.55 111.532 -41.2632
      vertex -28.8297 110.08 -42.5429
      vertex -27.55 109.768 -41.2632
    endloop
  endfacet
  facet normal -0.707106 0 0.707107
    outer loop
      vertex -28.8297 109.406 -42.5429
      vertex -27.55 109.768 -41.2632
      vertex -28.8297 110.08 -42.5429
    endloop
  endfacet
  facet normal -0.707107 0 0.707107
    outer loop
      vertex -29.4688 110.65 -43.182
      vertex -28.8297 110.08 -42.5429
      vertex -28.7359 112.077 -42.4491
    endloop
  endfacet
  facet normal -0.707109 -4.54751e-06 0.707105
    outer loop
      vertex -28.8297 110.08 -42.5429
      vertex -29.4688 110.65 -43.182
      vertex -29.1874 110.102 -42.9006
    endloop
  endfacet
  facet normal -0.707106 4.727e-07 0.707107
    outer loop
      vertex -27.55 109.768 -41.2632
      vertex -28.8297 109.406 -42.5429
      vertex -28.7359 109.223 -42.4491
    endloop
  endfacet
  facet normal -0.707107 0 -0.707107
    outer loop
      vertex -27.55 109.768 -41.2632
      vertex -34.2675 111.532 -34.5457
      vertex -27.55 111.532 -41.2632
    endloop
  endfacet
  facet normal -0.707107 -0 -0.707107
    outer loop
      vertex -34.2675 111.532 -34.5457
      vertex -27.55 109.768 -41.2632
      vertex -34.2675 109.768 -34.5457
    endloop
  endfacet
  facet normal -0.218508 -0.951056 -0.218508
    outer loop
      vertex -35.4534 112.077 -35.7316
      vertex -27.55 111.532 -41.2632
      vertex -34.2675 111.532 -34.5457
    endloop
  endfacet
  facet normal -0.218508 -0.951056 -0.218508
    outer loop
      vertex -27.55 111.532 -41.2632
      vertex -35.4534 112.077 -35.7316
      vertex -28.7359 112.077 -42.4491
    endloop
  endfacet
  facet normal 0.572062 0.587782 0.572064
    outer loop
      vertex -35.6855 109.675 -35.9637
      vertex -33.8583 109.786 -37.9047
      vertex -36.1863 110.65 -36.4645
    endloop
  endfacet
  facet normal 0.572064 0.587778 0.572065
    outer loop
      vertex -28.7359 109.223 -42.4491
      vertex -33.8583 109.786 -37.9047
      vertex -35.6855 109.675 -35.9637
    endloop
  endfacet
  facet normal 0.572063 0.587783 0.572063
    outer loop
      vertex -33.8583 109.786 -37.9047
      vertex -28.7359 109.223 -42.4491
      vertex -28.8297 109.406 -42.5429
    endloop
  endfacet
  facet normal 0.572062 0.587784 0.572062
    outer loop
      vertex -29.4688 110.65 -43.182
      vertex -33.8583 109.786 -37.9047
      vertex -29.1874 110.102 -42.9006
    endloop
  endfacet
  facet normal 0.572062 0.587784 0.572062
    outer loop
      vertex -33.8583 109.786 -37.9047
      vertex -29.4688 110.65 -43.182
      vertex -36.1863 110.65 -36.4645
    endloop
  endfacet
  facet normal 0.57206 0.587788 0.57206
    outer loop
      vertex -35.4534 109.223 -35.7316
      vertex -28.7359 109.223 -42.4491
      vertex -35.6855 109.675 -35.9637
    endloop
  endfacet
  facet normal -0.218508 0.951056 -0.218508
    outer loop
      vertex -27.55 109.768 -41.2632
      vertex -35.4534 109.223 -35.7316
      vertex -34.2675 109.768 -34.5457
    endloop
  endfacet
  facet normal -0.218508 0.951056 -0.218508
    outer loop
      vertex -35.4534 109.223 -35.7316
      vertex -27.55 109.768 -41.2632
      vertex -28.7359 109.223 -42.4491
    endloop
  endfacet
  facet normal 0.57206 -0.587788 0.572059
    outer loop
      vertex -49.6657 87.8192 -55.7249
      vertex -52.424 88.0766 -52.7021
      vertex -52.656 87.6248 -52.9342
    endloop
  endfacet
  facet normal 0.57206 -0.587789 0.572059
    outer loop
      vertex -52.424 88.0766 -52.7021
      vertex -49.6657 87.8192 -55.7249
      vertex -49.3597 88.0766 -55.7664
    endloop
  endfacet
  facet normal 0.572062 -0.587785 0.572061
    outer loop
      vertex -51.0558 86.65 -55.5361
      vertex -52.656 87.6248 -52.9342
      vertex -53.1569 86.65 -53.435
    endloop
  endfacet
  facet normal 0.572061 -0.587786 0.572061
    outer loop
      vertex -52.656 87.6248 -52.9342
      vertex -51.0558 86.65 -55.5361
      vertex -49.6657 87.8192 -55.7249
    endloop
  endfacet
  facet normal -0.707107 0 -0.707107
    outer loop
      vertex -46.6153 85.7683 -56.1391
      vertex -51.2381 87.5317 -51.5163
      vertex -46.6153 87.5317 -56.1391
    endloop
  endfacet
  facet normal -0.707107 -0 -0.707107
    outer loop
      vertex -51.2381 87.5317 -51.5163
      vertex -46.6153 85.7683 -56.1391
      vertex -51.2381 85.7683 -51.5163
    endloop
  endfacet
  facet normal -0.218508 -0.951056 -0.218508
    outer loop
      vertex -49.3597 88.0766 -55.7664
      vertex -51.2381 87.5317 -51.5163
      vertex -52.424 88.0766 -52.7021
    endloop
  endfacet
  facet normal -0.218508 -0.951057 -0.218508
    outer loop
      vertex -51.2381 87.5317 -51.5163
      vertex -49.3597 88.0766 -55.7664
      vertex -46.6153 87.5317 -56.1391
    endloop
  endfacet
  facet normal 0.572062 0.587785 0.572061
    outer loop
      vertex -52.656 85.6752 -52.9342
      vertex -51.0558 86.65 -55.5361
      vertex -53.1569 86.65 -53.435
    endloop
  endfacet
  facet normal 0.572061 0.587786 0.572061
    outer loop
      vertex -51.0558 86.65 -55.5361
      vertex -52.656 85.6752 -52.9342
      vertex -49.6657 85.4808 -55.7249
    endloop
  endfacet
  facet normal 0.57206 0.587788 0.572059
    outer loop
      vertex -52.424 85.2234 -52.7021
      vertex -49.6657 85.4808 -55.7249
      vertex -52.656 85.6752 -52.9342
    endloop
  endfacet
  facet normal 0.57206 0.587789 0.572059
    outer loop
      vertex -49.6657 85.4808 -55.7249
      vertex -52.424 85.2234 -52.7021
      vertex -49.3597 85.2234 -55.7664
    endloop
  endfacet
  facet normal -0.218508 0.951056 -0.218508
    outer loop
      vertex -51.2381 85.7683 -51.5163
      vertex -49.3597 85.2234 -55.7664
      vertex -52.424 85.2234 -52.7021
    endloop
  endfacet
  facet normal -0.218508 0.951057 -0.218508
    outer loop
      vertex -49.3597 85.2234 -55.7664
      vertex -51.2381 85.7683 -51.5163
      vertex -46.6153 85.7683 -56.1391
    endloop
  endfacet
  facet normal 0.57206 -0.587788 0.572059
    outer loop
      vertex -49.6657 111.819 -55.7249
      vertex -52.424 112.077 -52.7021
      vertex -52.656 111.625 -52.9342
    endloop
  endfacet
  facet normal 0.57206 -0.587789 0.572059
    outer loop
      vertex -52.424 112.077 -52.7021
      vertex -49.6657 111.819 -55.7249
      vertex -49.3597 112.077 -55.7664
    endloop
  endfacet
  facet normal 0.572062 -0.587785 0.572061
    outer loop
      vertex -51.0558 110.65 -55.5361
      vertex -52.656 111.625 -52.9342
      vertex -53.1569 110.65 -53.435
    endloop
  endfacet
  facet normal 0.572061 -0.587786 0.572061
    outer loop
      vertex -52.656 111.625 -52.9342
      vertex -51.0558 110.65 -55.5361
      vertex -49.6657 111.819 -55.7249
    endloop
  endfacet
  facet normal -0.707107 0 -0.707107
    outer loop
      vertex -46.6153 109.768 -56.1391
      vertex -51.2381 111.532 -51.5163
      vertex -46.6153 111.532 -56.1391
    endloop
  endfacet
  facet normal -0.707107 -0 -0.707107
    outer loop
      vertex -51.2381 111.532 -51.5163
      vertex -46.6153 109.768 -56.1391
      vertex -51.2381 109.768 -51.5163
    endloop
  endfacet
  facet normal -0.218508 -0.951056 -0.218508
    outer loop
      vertex -49.3597 112.077 -55.7664
      vertex -51.2381 111.532 -51.5163
      vertex -52.424 112.077 -52.7021
    endloop
  endfacet
  facet normal -0.218508 -0.951057 -0.218508
    outer loop
      vertex -51.2381 111.532 -51.5163
      vertex -49.3597 112.077 -55.7664
      vertex -46.6153 111.532 -56.1391
    endloop
  endfacet
  facet normal 0.572063 0.587782 0.572062
    outer loop
      vertex -52.656 109.675 -52.9342
      vertex -51.0558 110.65 -55.5361
      vertex -53.1569 110.65 -53.435
    endloop
  endfacet
  facet normal 0.572061 0.587785 0.572062
    outer loop
      vertex -51.0558 110.65 -55.5361
      vertex -52.656 109.675 -52.9342
      vertex -49.6657 109.481 -55.7249
    endloop
  endfacet
  facet normal 0.572059 0.587788 0.57206
    outer loop
      vertex -52.424 109.223 -52.7021
      vertex -49.6657 109.481 -55.7249
      vertex -52.656 109.675 -52.9342
    endloop
  endfacet
  facet normal 0.572066 0.587778 0.572065
    outer loop
      vertex -49.6657 109.481 -55.7249
      vertex -52.424 109.223 -52.7021
      vertex -49.3597 109.223 -55.7664
    endloop
  endfacet
  facet normal -0.218508 0.951056 -0.218508
    outer loop
      vertex -51.2381 109.768 -51.5163
      vertex -49.3597 109.223 -55.7664
      vertex -52.424 109.223 -52.7021
    endloop
  endfacet
  facet normal -0.218508 0.951057 -0.218508
    outer loop
      vertex -49.3597 109.223 -55.7664
      vertex -51.2381 109.768 -51.5163
      vertex -46.6153 109.768 -56.1391
    endloop
  endfacet
  facet normal -0.707112 -6.85268e-06 0.707101
    outer loop
      vertex -41.145 111.436 -41.4232
      vertex -41.1781 111.882 -41.4563
      vertex -42.5022 113.568 -42.7804
    endloop
  endfacet
  facet normal -0.707107 0 0.707107
    outer loop
      vertex -41.4345 112.696 -41.7127
      vertex -41.6465 113.029 -41.9247
      vertex -42.5022 113.568 -42.7804
    endloop
  endfacet
  facet normal -0.707107 0 0.707107
    outer loop
      vertex -42.5022 109.673 -42.7804
      vertex -41.145 111.436 -41.4232
      vertex -42.5022 113.568 -42.7804
    endloop
  endfacet
  facet normal -0.707107 0 0.707107
    outer loop
      vertex -41.145 111.436 -41.4232
      vertex -42.5022 109.673 -42.7804
      vertex -41.145 109.673 -41.4232
    endloop
  endfacet
  facet normal -0.707107 0 0.707107
    outer loop
      vertex -42.5022 87.6271 -42.7804
      vertex -41.145 85.8639 -41.4232
      vertex -41.145 87.6271 -41.4232
    endloop
  endfacet
  facet normal -0.707107 0 0.707107
    outer loop
      vertex -41.145 85.8639 -41.4232
      vertex -42.5022 87.6271 -42.7804
      vertex -42.5022 83.7322 -42.7804
    endloop
  endfacet
  facet normal -0.707107 0 0.707107
    outer loop
      vertex -41.6465 84.271 -41.9247
      vertex -41.4345 84.604 -41.7127
      vertex -42.5022 83.7322 -42.7804
    endloop
  endfacet
  facet normal -0.707103 8.28547e-06 0.707111
    outer loop
      vertex -41.1781 111.882 -41.4563
      vertex -41.2761 112.308 -41.5542
      vertex -42.5022 113.568 -42.7804
    endloop
  endfacet
  facet normal -0.707107 0 0.707107
    outer loop
      vertex -41.2761 112.308 -41.5542
      vertex -41.4345 112.696 -41.7127
      vertex -42.5022 113.568 -42.7804
    endloop
  endfacet
  facet normal -0.707107 0 0.707107
    outer loop
      vertex -41.9028 113.292 -42.181
      vertex -42.1923 113.475 -42.4705
      vertex -42.5022 113.568 -42.7804
    endloop
  endfacet
  facet normal -0.707103 -8.28528e-06 0.707111
    outer loop
      vertex -41.2761 84.992 -41.5542
      vertex -41.1781 85.4182 -41.4563
      vertex -42.5022 83.7322 -42.7804
    endloop
  endfacet
  facet normal -0.707112 6.85281e-06 0.707101
    outer loop
      vertex -41.1781 85.4182 -41.4563
      vertex -41.145 85.8639 -41.4232
      vertex -42.5022 83.7322 -42.7804
    endloop
  endfacet
  facet normal -0.707107 0 0.707107
    outer loop
      vertex -53.3005 104.751 -53.5787
      vertex -51.3891 108.728 -51.6673
      vertex -52.1918 107.467 -52.47
    endloop
  endfacet
  facet normal -0.707107 0 0.707107
    outer loop
      vertex -53.9857 101.769 -54.2639
      vertex -51.3891 108.728 -51.6673
      vertex -53.3005 104.751 -53.5787
    endloop
  endfacet
  facet normal -0.707107 0 0.707107
    outer loop
      vertex -54.2175 98.65 -54.4957
      vertex -51.3891 108.728 -51.6673
      vertex -53.9857 101.769 -54.2639
    endloop
  endfacet
  facet normal -0.707107 0 0.707107
    outer loop
      vertex -53.9857 95.5313 -54.2639
      vertex -51.3891 108.728 -51.6673
      vertex -54.2175 98.65 -54.4957
    endloop
  endfacet
  facet normal -0.707107 0 0.707107
    outer loop
      vertex -51.3891 88.5724 -51.6673
      vertex -53.9857 95.5313 -54.2639
      vertex -53.3005 92.549 -53.5787
    endloop
  endfacet
  facet normal -0.707107 0 0.707107
    outer loop
      vertex -51.3891 88.5724 -51.6673
      vertex -53.3005 92.549 -53.5787
      vertex -52.1918 89.8332 -52.47
    endloop
  endfacet
  facet normal -0.707107 0 0.707107
    outer loop
      vertex -53.9857 95.5313 -54.2639
      vertex -51.3891 88.5724 -51.6673
      vertex -51.3891 108.728 -51.6673
    endloop
  endfacet
  facet normal -0.707106 6.04551e-07 0.707107
    outer loop
      vertex -42.5022 109.673 -42.7804
      vertex -44.7196 113.568 -44.9978
      vertex -46.8885 112.916 -47.1667
    endloop
  endfacet
  facet normal -0.707107 -4.49206e-07 0.707107
    outer loop
      vertex -42.5022 109.673 -42.7804
      vertex -46.8885 112.916 -47.1667
      vertex -48.9142 111.64 -49.1924
    endloop
  endfacet
  facet normal -0.707107 -1.44216e-06 0.707107
    outer loop
      vertex -42.5022 109.673 -42.7804
      vertex -48.9142 111.64 -49.1924
      vertex -50.7081 109.797 -50.9863
    endloop
  endfacet
  facet normal -0.707107 0 0.707107
    outer loop
      vertex -42.5022 109.673 -42.7804
      vertex -50.7081 109.797 -50.9863
      vertex -50.7873 109.673 -51.0654
    endloop
  endfacet
  facet normal -0.707107 0 0.707107
    outer loop
      vertex -44.7196 113.568 -44.9978
      vertex -42.5022 109.673 -42.7804
      vertex -42.5022 113.568 -42.7804
    endloop
  endfacet
  facet normal -0.707107 0 0.707107
    outer loop
      vertex -50.7081 87.5028 -50.9863
      vertex -42.5022 87.6271 -42.7804
      vertex -50.7873 87.6271 -51.0654
    endloop
  endfacet
  facet normal -0.707107 1.44216e-06 0.707107
    outer loop
      vertex -48.9142 85.6596 -49.1924
      vertex -42.5022 87.6271 -42.7804
      vertex -50.7081 87.5028 -50.9863
    endloop
  endfacet
  facet normal -0.707107 4.49206e-07 0.707107
    outer loop
      vertex -46.8885 84.3842 -47.1667
      vertex -42.5022 87.6271 -42.7804
      vertex -48.9142 85.6596 -49.1924
    endloop
  endfacet
  facet normal -0.707106 -6.0455e-07 0.707107
    outer loop
      vertex -44.7196 83.7322 -44.9978
      vertex -42.5022 87.6271 -42.7804
      vertex -46.8885 84.3842 -47.1667
    endloop
  endfacet
  facet normal -0.707107 0 0.707107
    outer loop
      vertex -42.5022 87.6271 -42.7804
      vertex -44.7196 83.7322 -44.9978
      vertex -42.5022 83.7322 -42.7804
    endloop
  endfacet
  facet normal -0.707107 0 0.707107
    outer loop
      vertex -42.1923 83.8253 -42.4705
      vertex -41.9028 84.0076 -42.181
      vertex -42.5022 83.7322 -42.7804
    endloop
  endfacet
  facet normal -0.707107 0 0.707107
    outer loop
      vertex -41.6465 113.029 -41.9247
      vertex -41.9028 113.292 -42.181
      vertex -42.5022 113.568 -42.7804
    endloop
  endfacet
  facet normal -0.707107 0 0.707107
    outer loop
      vertex -41.9028 84.0076 -42.181
      vertex -41.6465 84.271 -41.9247
      vertex -42.5022 83.7322 -42.7804
    endloop
  endfacet
  facet normal -0.707107 0 0.707107
    outer loop
      vertex -41.4345 84.604 -41.7127
      vertex -41.2761 84.992 -41.5542
      vertex -42.5022 83.7322 -42.7804
    endloop
  endfacet
  facet normal 0.991635 0 -0.129075
    outer loop
      vertex -19.5 111.15 1.5
      vertex -24.1655 114.15 -34.3431
      vertex -19.5 114.15 1.5
    endloop
  endfacet
  facet normal 0.991635 0 -0.129075
    outer loop
      vertex -24.1655 114.15 -34.3431
      vertex -19.5 111.15 1.5
      vertex -24.1655 111.15 -34.3431
    endloop
  endfacet
  facet normal 0.707106 0 -0.707107
    outer loop
      vertex -27.701 111.15 -37.8787
      vertex -24.1655 114.15 -34.3431
      vertex -24.1655 111.15 -34.3431
    endloop
  endfacet
  facet normal 0.707106 0 -0.707107
    outer loop
      vertex -24.1655 114.15 -34.3431
      vertex -27.701 111.15 -37.8787
      vertex -27.701 114.15 -37.8787
    endloop
  endfacet
  facet normal -0.707107 0 -0.707107
    outer loop
      vertex -32.6508 111.15 -32.9289
      vertex -27.701 114.15 -37.8787
      vertex -27.701 111.15 -37.8787
    endloop
  endfacet
  facet normal -0.707107 0 -0.707107
    outer loop
      vertex -27.701 114.15 -37.8787
      vertex -32.6508 111.15 -32.9289
      vertex -32.6508 114.15 -32.9289
    endloop
  endfacet
  facet normal 1 0 0
    outer loop
      vertex -19.5 114.15 7
      vertex -19.5 111.15 5
      vertex -19.5 114.15 1.5
    endloop
  endfacet
  facet normal 1 -0 0
    outer loop
      vertex -19.5 99.15 7
      vertex -19.5 111.15 5
      vertex -19.5 114.15 7
    endloop
  endfacet
  facet normal 1 0 0
    outer loop
      vertex -19.5 111.15 5
      vertex -19.5 99.15 7
      vertex -19.5 99.15 5
    endloop
  endfacet
  facet normal 1 0 0
    outer loop
      vertex -19.5 114.15 1.5
      vertex -19.5 111.15 5
      vertex -19.5 111.15 1.5
    endloop
  endfacet
  facet normal -0.98805 0 0.154132
    outer loop
      vertex -32.6508 111.15 -32.9289
      vertex -26.5 114.15 6.5
      vertex -32.6508 114.15 -32.9289
    endloop
  endfacet
  facet normal -0.98805 0 0.154132
    outer loop
      vertex -26.5 114.15 6.5
      vertex -32.6508 111.15 -32.9289
      vertex -26.5 111.15 6.5
    endloop
  endfacet
  facet normal 0 1 -0
    outer loop
      vertex -24.1655 114.15 -34.3431
      vertex -27.625 114.15 -32.4845
      vertex -19.5 114.15 1.5
    endloop
  endfacet
  facet normal 0 1 0
    outer loop
      vertex -27.625 114.15 -32.4845
      vertex -24.1655 114.15 -34.3431
      vertex -27.3231 114.15 -33.0073
    endloop
  endfacet
  facet normal 0 1 0
    outer loop
      vertex -27.3231 114.15 -33.0073
      vertex -24.1655 114.15 -34.3431
      vertex -26.75 114.15 -34
    endloop
  endfacet
  facet normal 0 1 0
    outer loop
      vertex -24.1655 114.15 -34.3431
      vertex -27.0519 114.15 -34.5229
      vertex -26.75 114.15 -34
    endloop
  endfacet
  facet normal 0 1 0
    outer loop
      vertex -24.1655 114.15 -34.3431
      vertex -27.625 114.15 -35.5155
      vertex -27.0519 114.15 -34.5229
    endloop
  endfacet
  facet normal 0 1 0
    outer loop
      vertex -27.625 114.15 -35.5155
      vertex -27.701 114.15 -37.8787
      vertex -29.375 114.15 -35.5155
    endloop
  endfacet
  facet normal 0 1 0
    outer loop
      vertex -27.701 114.15 -37.8787
      vertex -27.625 114.15 -35.5155
      vertex -24.1655 114.15 -34.3431
    endloop
  endfacet
  facet normal 0 1 0
    outer loop
      vertex -19.5 114.15 7
      vertex -26.5 114.15 6.5
      vertex -26.5 114.15 7
    endloop
  endfacet
  facet normal 0 1 -0
    outer loop
      vertex -19.5 114.15 1.5
      vertex -26.5 114.15 6.5
      vertex -19.5 114.15 7
    endloop
  endfacet
  facet normal 0 1 0
    outer loop
      vertex -29.375 114.15 -32.4845
      vertex -19.5 114.15 1.5
      vertex -27.625 114.15 -32.4845
    endloop
  endfacet
  facet normal 0 1 0
    outer loop
      vertex -32.6508 114.15 -32.9289
      vertex -19.5 114.15 1.5
      vertex -29.375 114.15 -32.4845
    endloop
  endfacet
  facet normal 0 1 0
    outer loop
      vertex -19.5 114.15 1.5
      vertex -32.6508 114.15 -32.9289
      vertex -26.5 114.15 6.5
    endloop
  endfacet
  facet normal 0 1 -0
    outer loop
      vertex -29.6769 114.15 -33.0073
      vertex -32.6508 114.15 -32.9289
      vertex -29.375 114.15 -32.4845
    endloop
  endfacet
  facet normal 0 1 -0
    outer loop
      vertex -30.25 114.15 -34
      vertex -32.6508 114.15 -32.9289
      vertex -29.6769 114.15 -33.0073
    endloop
  endfacet
  facet normal 0 1 0
    outer loop
      vertex -29.9481 114.15 -34.5229
      vertex -32.6508 114.15 -32.9289
      vertex -30.25 114.15 -34
    endloop
  endfacet
  facet normal 0 1 0
    outer loop
      vertex -29.375 114.15 -35.5155
      vertex -32.6508 114.15 -32.9289
      vertex -29.9481 114.15 -34.5229
    endloop
  endfacet
  facet normal 0 1 0
    outer loop
      vertex -32.6508 114.15 -32.9289
      vertex -29.375 114.15 -35.5155
      vertex -27.701 114.15 -37.8787
    endloop
  endfacet
  facet normal 0 -1 0
    outer loop
      vertex -26.5 111.15 5
      vertex -19.5 111.15 1.5
      vertex -19.5 111.15 5
    endloop
  endfacet
  facet normal 0 -1 -0
    outer loop
      vertex -26.5 111.15 5
      vertex -29.375 111.15 -32.4845
      vertex -19.5 111.15 1.5
    endloop
  endfacet
  facet normal 0 -1 0
    outer loop
      vertex -32.6508 111.15 -32.9289
      vertex -26.5 111.15 5
      vertex -26.5 111.15 6.5
    endloop
  endfacet
  facet normal 0 -1 0
    outer loop
      vertex -26.5 111.15 5
      vertex -32.6508 111.15 -32.9289
      vertex -29.375 111.15 -32.4845
    endloop
  endfacet
  facet normal 0 -1 0
    outer loop
      vertex -32.6508 111.15 -32.9289
      vertex -29.7031 111.15 -33.0528
      vertex -29.375 111.15 -32.4845
    endloop
  endfacet
  facet normal 0 -1 0
    outer loop
      vertex -32.6508 111.15 -32.9289
      vertex -30.25 111.15 -34
      vertex -29.7031 111.15 -33.0528
    endloop
  endfacet
  facet normal 0 -1 0
    outer loop
      vertex -32.6508 111.15 -32.9289
      vertex -29.9219 111.15 -34.5683
      vertex -30.25 111.15 -34
    endloop
  endfacet
  facet normal 0 -1 0
    outer loop
      vertex -32.6508 111.15 -32.9289
      vertex -29.375 111.15 -35.5155
      vertex -29.9219 111.15 -34.5683
    endloop
  endfacet
  facet normal 0 -1 0
    outer loop
      vertex -29.375 111.15 -35.5155
      vertex -27.701 111.15 -37.8787
      vertex -27.625 111.15 -35.5155
    endloop
  endfacet
  facet normal 0 -1 0
    outer loop
      vertex -27.701 111.15 -37.8787
      vertex -29.375 111.15 -35.5155
      vertex -32.6508 111.15 -32.9289
    endloop
  endfacet
  facet normal 0 -1 0
    outer loop
      vertex -27.625 111.15 -32.4845
      vertex -19.5 111.15 1.5
      vertex -29.375 111.15 -32.4845
    endloop
  endfacet
  facet normal 0 -1 0
    outer loop
      vertex -24.1655 111.15 -34.3431
      vertex -27.625 111.15 -32.4845
      vertex -27.2969 111.15 -33.0528
    endloop
  endfacet
  facet normal 0 -1 0
    outer loop
      vertex -24.1655 111.15 -34.3431
      vertex -27.2969 111.15 -33.0528
      vertex -26.75 111.15 -34
    endloop
  endfacet
  facet normal 0 -1 0
    outer loop
      vertex -27.625 111.15 -32.4845
      vertex -24.1655 111.15 -34.3431
      vertex -19.5 111.15 1.5
    endloop
  endfacet
  facet normal 0 -1 0
    outer loop
      vertex -27.0781 111.15 -34.5683
      vertex -24.1655 111.15 -34.3431
      vertex -26.75 111.15 -34
    endloop
  endfacet
  facet normal 0 -1 0
    outer loop
      vertex -27.625 111.15 -35.5155
      vertex -24.1655 111.15 -34.3431
      vertex -27.0781 111.15 -34.5683
    endloop
  endfacet
  facet normal 0 -1 0
    outer loop
      vertex -24.1655 111.15 -34.3431
      vertex -27.625 111.15 -35.5155
      vertex -27.701 111.15 -37.8787
    endloop
  endfacet
  facet normal -1 0 0
    outer loop
      vertex -26.5 111.15 5
      vertex -26.5 99.15 5
      vertex -26.5 111.15 6.5
    endloop
  endfacet
  facet normal -1 0 0
    outer loop
      vertex -26.5 111.15 6.5
      vertex -26.5 114.15 7
      vertex -26.5 114.15 6.5
    endloop
  endfacet
  facet normal -1 0 0
    outer loop
      vertex -26.5 99.15 7
      vertex -26.5 111.15 6.5
      vertex -26.5 99.15 5
    endloop
  endfacet
  facet normal -1 0 0
    outer loop
      vertex -26.5 111.15 6.5
      vertex -26.5 99.15 7
      vertex -26.5 114.15 7
    endloop
  endfacet
  facet normal 0 0 1
    outer loop
      vertex -19.5 114.15 7
      vertex -20.25 105.15 7
      vertex -19.5 99.15 7
    endloop
  endfacet
  facet normal 0 0 1
    outer loop
      vertex -19.5 114.15 7
      vertex -21.125 106.666 7
      vertex -20.25 105.15 7
    endloop
  endfacet
  facet normal 0 0 1
    outer loop
      vertex -19.5 114.15 7
      vertex -22.875 106.666 7
      vertex -21.125 106.666 7
    endloop
  endfacet
  facet normal -0 0 1
    outer loop
      vertex -26.5 114.15 7
      vertex -22.875 106.666 7
      vertex -19.5 114.15 7
    endloop
  endfacet
  facet normal 0 0 1
    outer loop
      vertex -22.875 106.666 7
      vertex -26.5 114.15 7
      vertex -23.75 105.15 7
    endloop
  endfacet
  facet normal -0 0 1
    outer loop
      vertex -21.125 103.634 7
      vertex -19.5 99.15 7
      vertex -20.25 105.15 7
    endloop
  endfacet
  facet normal -0 0 1
    outer loop
      vertex -22.875 103.634 7
      vertex -19.5 99.15 7
      vertex -21.125 103.634 7
    endloop
  endfacet
  facet normal 0 0 1
    outer loop
      vertex -22.875 103.634 7
      vertex -26.5 99.15 7
      vertex -19.5 99.15 7
    endloop
  endfacet
  facet normal 0 0 1
    outer loop
      vertex -23.75 105.15 7
      vertex -26.5 99.15 7
      vertex -22.875 103.634 7
    endloop
  endfacet
  facet normal 0 0 1
    outer loop
      vertex -26.5 99.15 7
      vertex -23.75 105.15 7
      vertex -26.5 114.15 7
    endloop
  endfacet
  facet normal 0 0 -1
    outer loop
      vertex -19.5 99.15 5
      vertex -20.25 105.15 5
      vertex -19.5 111.15 5
    endloop
  endfacet
  facet normal 0 0 -1
    outer loop
      vertex -19.5 99.15 5
      vertex -21.125 103.634 5
      vertex -20.25 105.15 5
    endloop
  endfacet
  facet normal 0 0 -1
    outer loop
      vertex -19.5 99.15 5
      vertex -22.875 103.634 5
      vertex -21.125 103.634 5
    endloop
  endfacet
  facet normal -0 0 -1
    outer loop
      vertex -22.875 103.634 5
      vertex -26.5 99.15 5
      vertex -23.75 105.15 5
    endloop
  endfacet
  facet normal 0 0 -1
    outer loop
      vertex -26.5 99.15 5
      vertex -22.875 103.634 5
      vertex -19.5 99.15 5
    endloop
  endfacet
  facet normal 0 0 -1
    outer loop
      vertex -21.125 106.666 5
      vertex -19.5 111.15 5
      vertex -20.25 105.15 5
    endloop
  endfacet
  facet normal 0 0 -1
    outer loop
      vertex -22.875 106.666 5
      vertex -19.5 111.15 5
      vertex -21.125 106.666 5
    endloop
  endfacet
  facet normal 0 0 -1
    outer loop
      vertex -22.875 106.666 5
      vertex -26.5 111.15 5
      vertex -19.5 111.15 5
    endloop
  endfacet
  facet normal 0 0 -1
    outer loop
      vertex -23.75 105.15 5
      vertex -26.5 111.15 5
      vertex -22.875 106.666 5
    endloop
  endfacet
  facet normal 0 0 -1
    outer loop
      vertex -26.5 111.15 5
      vertex -23.75 105.15 5
      vertex -26.5 99.15 5
    endloop
  endfacet
  facet normal 0 -1 0
    outer loop
      vertex -26.5 99.15 5
      vertex -19.5 99.15 7
      vertex -26.5 99.15 7
    endloop
  endfacet
  facet normal 0 -1 -0
    outer loop
      vertex -19.5 99.15 7
      vertex -26.5 99.15 5
      vertex -19.5 99.15 5
    endloop
  endfacet
  facet normal -0.707107 0 0.707107
    outer loop
      vertex -36.1863 86.65 -36.4645
      vertex -35.8404 87.6271 -36.1186
      vertex -41.145 87.6271 -41.4232
    endloop
  endfacet
  facet normal -0.707107 0 0.707107
    outer loop
      vertex -35.8404 87.6271 -36.1186
      vertex -36.1863 86.65 -36.4645
      vertex -35.6855 87.6248 -35.9637
    endloop
  endfacet
  facet normal -0.707107 0 0.707107
    outer loop
      vertex -41.145 85.8639 -41.4232
      vertex -36.1863 86.65 -36.4645
      vertex -41.145 87.6271 -41.4232
    endloop
  endfacet
  facet normal -0.707107 6.12503e-06 0.707106
    outer loop
      vertex -41.1781 85.4182 -41.4563
      vertex -36.1863 86.65 -36.4645
      vertex -41.145 85.8639 -41.4232
    endloop
  endfacet
  facet normal -0.707107 2.46374e-07 0.707107
    outer loop
      vertex -36.1863 86.65 -36.4645
      vertex -41.1781 85.4182 -41.4563
      vertex -35.6855 85.6752 -35.9637
    endloop
  endfacet
  facet normal -0.707106 -6.51221e-06 0.707107
    outer loop
      vertex -41.2761 84.992 -41.5542
      vertex -35.6855 85.6752 -35.9637
      vertex -41.1781 85.4182 -41.4563
    endloop
  endfacet
  facet normal -0.707107 0 0.707107
    outer loop
      vertex -35.6855 85.6752 -35.9637
      vertex -41.2761 84.992 -41.5542
      vertex -35.4534 85.2234 -35.7316
    endloop
  endfacet
  facet normal -0.707107 2.73816e-05 0.707106
    outer loop
      vertex -51.2381 109.768 -51.5163
      vertex -51.1731 109.672 -51.4513
      vertex -51.1596 109.673 -51.4378
    endloop
  endfacet
  facet normal -0.707114 1.83593e-05 0.7071
    outer loop
      vertex -51.2381 109.768 -51.5163
      vertex -51.3891 109.65 -51.6673
      vertex -51.1731 109.672 -51.4513
    endloop
  endfacet
  facet normal -0.707107 0 0.707107
    outer loop
      vertex -52.424 109.223 -52.7021
      vertex -51.3891 109.65 -51.6673
      vertex -51.2381 109.768 -51.5163
    endloop
  endfacet
  facet normal -0.707107 0 0.707107
    outer loop
      vertex -51.3891 109.65 -51.6673
      vertex -52.424 109.223 -52.7021
      vertex -51.3891 108.728 -51.6673
    endloop
  endfacet
  facet normal -0.707106 6.51233e-06 0.707107
    outer loop
      vertex -35.6855 111.625 -35.9637
      vertex -41.2761 112.308 -41.5542
      vertex -41.1781 111.882 -41.4563
    endloop
  endfacet
  facet normal -0.707107 0 0.707107
    outer loop
      vertex -41.2761 112.308 -41.5542
      vertex -35.6855 111.625 -35.9637
      vertex -35.4534 112.077 -35.7316
    endloop
  endfacet
  facet normal -0.707107 -6.12492e-06 0.707106
    outer loop
      vertex -36.1863 110.65 -36.4645
      vertex -41.1781 111.882 -41.4563
      vertex -41.145 111.436 -41.4232
    endloop
  endfacet
  facet normal -0.707107 -2.46374e-07 0.707107
    outer loop
      vertex -41.1781 111.882 -41.4563
      vertex -36.1863 110.65 -36.4645
      vertex -35.6855 111.625 -35.9637
    endloop
  endfacet
  facet normal -0.707107 0 0.707107
    outer loop
      vertex -41.145 109.673 -41.4232
      vertex -36.1863 110.65 -36.4645
      vertex -41.145 111.436 -41.4232
    endloop
  endfacet
  facet normal -0.707107 0 0.707107
    outer loop
      vertex -36.1863 110.65 -36.4645
      vertex -41.145 109.673 -41.4232
      vertex -35.8404 109.673 -36.1186
    endloop
  endfacet
  facet normal -0.707107 0 0.707107
    outer loop
      vertex -35.8185 109.671 -36.0966
      vertex -36.1863 110.65 -36.4645
      vertex -35.8404 109.673 -36.1186
    endloop
  endfacet
  facet normal -0.707107 0 0.707107
    outer loop
      vertex -36.1863 110.65 -36.4645
      vertex -35.8185 109.671 -36.0966
      vertex -35.6855 109.675 -35.9637
    endloop
  endfacet
  facet normal -0.707107 0 0.707107
    outer loop
      vertex -35.8185 109.671 -36.0966
      vertex -35.4534 109.223 -35.7316
      vertex -35.6855 109.675 -35.9637
    endloop
  endfacet
  facet normal -0.707107 0 0.707107
    outer loop
      vertex -35.8185 109.671 -36.0966
      vertex -35.4534 88.0766 -35.7316
      vertex -35.4534 109.223 -35.7316
    endloop
  endfacet
  facet normal -0.707107 0 0.707107
    outer loop
      vertex -35.8185 87.6285 -36.0966
      vertex -35.4534 88.0766 -35.7316
      vertex -35.8185 109.671 -36.0966
    endloop
  endfacet
  facet normal -0.707107 0 0.707107
    outer loop
      vertex -35.8185 87.6285 -36.0966
      vertex -35.6855 87.6248 -35.9637
      vertex -35.4534 88.0766 -35.7316
    endloop
  endfacet
  facet normal -0.707107 0 0.707107
    outer loop
      vertex -35.6855 87.6248 -35.9637
      vertex -35.8185 87.6285 -36.0966
      vertex -35.8404 87.6271 -36.1186
    endloop
  endfacet
  facet normal -0.707107 0 0.707107
    outer loop
      vertex -54.2175 113.65 -54.4957
      vertex -44.7196 113.568 -44.9978
      vertex -33.0043 113.65 -33.2825
    endloop
  endfacet
  facet normal -0.707107 4.02151e-06 0.707107
    outer loop
      vertex -54.2175 113.65 -54.4957
      vertex -46.8885 112.916 -47.1667
      vertex -44.7196 113.568 -44.9978
    endloop
  endfacet
  facet normal -0.707107 -4.73621e-07 0.707107
    outer loop
      vertex -54.2175 113.65 -54.4957
      vertex -52.424 112.077 -52.7021
      vertex -46.8885 112.916 -47.1667
    endloop
  endfacet
  facet normal -0.707107 0 0.707107
    outer loop
      vertex -54.2175 113.65 -54.4957
      vertex -52.656 111.625 -52.9342
      vertex -52.424 112.077 -52.7021
    endloop
  endfacet
  facet normal -0.707107 0 0.707107
    outer loop
      vertex -54.2175 113.65 -54.4957
      vertex -53.1569 110.65 -53.435
      vertex -52.656 111.625 -52.9342
    endloop
  endfacet
  facet normal -0.707107 0 0.707107
    outer loop
      vertex -52.424 109.223 -52.7021
      vertex -52.1918 107.467 -52.47
      vertex -51.3891 108.728 -51.6673
    endloop
  endfacet
  facet normal -0.707107 0 0.707107
    outer loop
      vertex -52.656 109.675 -52.9342
      vertex -52.1918 107.467 -52.47
      vertex -52.424 109.223 -52.7021
    endloop
  endfacet
  facet normal -0.707107 0 0.707107
    outer loop
      vertex -53.3005 104.751 -53.5787
      vertex -52.656 109.675 -52.9342
      vertex -53.1569 110.65 -53.435
    endloop
  endfacet
  facet normal -0.707107 0 0.707107
    outer loop
      vertex -53.3005 104.751 -53.5787
      vertex -53.1569 110.65 -53.435
      vertex -54.2175 113.65 -54.4957
    endloop
  endfacet
  facet normal -0.707107 0 0.707107
    outer loop
      vertex -52.656 109.675 -52.9342
      vertex -53.3005 104.751 -53.5787
      vertex -52.1918 107.467 -52.47
    endloop
  endfacet
  facet normal -0.707107 0 0.707107
    outer loop
      vertex -54.2175 113.65 -54.4957
      vertex -53.9857 101.769 -54.2639
      vertex -53.3005 104.751 -53.5787
    endloop
  endfacet
  facet normal -0.707107 0 0.707107
    outer loop
      vertex -53.9857 101.769 -54.2639
      vertex -54.2175 113.65 -54.4957
      vertex -54.2175 98.65 -54.4957
    endloop
  endfacet
  facet normal -0.707107 0 0.707107
    outer loop
      vertex -42.5022 113.568 -42.7804
      vertex -33.0043 113.65 -33.2825
      vertex -44.7196 113.568 -44.9978
    endloop
  endfacet
  facet normal -0.707107 0 0.707107
    outer loop
      vertex -42.1923 113.475 -42.4705
      vertex -33.0043 113.65 -33.2825
      vertex -42.5022 113.568 -42.7804
    endloop
  endfacet
  facet normal -0.707107 0 0.707107
    outer loop
      vertex -41.9028 113.292 -42.181
      vertex -33.0043 113.65 -33.2825
      vertex -42.1923 113.475 -42.4705
    endloop
  endfacet
  facet normal -0.707107 0 0.707107
    outer loop
      vertex -35.4534 112.077 -35.7316
      vertex -41.9028 113.292 -42.181
      vertex -41.6465 113.029 -41.9247
    endloop
  endfacet
  facet normal -0.707107 0 0.707107
    outer loop
      vertex -35.4534 112.077 -35.7316
      vertex -41.6465 113.029 -41.9247
      vertex -41.4345 112.696 -41.7127
    endloop
  endfacet
  facet normal -0.707107 0 0.707107
    outer loop
      vertex -35.4534 112.077 -35.7316
      vertex -41.4345 112.696 -41.7127
      vertex -41.2761 112.308 -41.5542
    endloop
  endfacet
  facet normal -0.707107 0 0.707107
    outer loop
      vertex -41.9028 113.292 -42.181
      vertex -35.4534 112.077 -35.7316
      vertex -33.0043 113.65 -33.2825
    endloop
  endfacet
  facet normal -0.707107 0 0.707107
    outer loop
      vertex -34.2675 111.532 -34.5457
      vertex -33.0043 113.65 -33.2825
      vertex -35.4534 112.077 -35.7316
    endloop
  endfacet
  facet normal -0.707107 0 0.707107
    outer loop
      vertex -34.2675 109.768 -34.5457
      vertex -33.0043 113.65 -33.2825
      vertex -34.2675 111.532 -34.5457
    endloop
  endfacet
  facet normal -0.707107 0 0.707107
    outer loop
      vertex -35.4534 88.0766 -35.7316
      vertex -34.2675 109.768 -34.5457
      vertex -35.4534 109.223 -35.7316
    endloop
  endfacet
  facet normal -0.707107 0 0.707107
    outer loop
      vertex -34.2675 87.5317 -34.5457
      vertex -34.2675 109.768 -34.5457
      vertex -35.4534 88.0766 -35.7316
    endloop
  endfacet
  facet normal -0.707107 0 0.707107
    outer loop
      vertex -34.2675 109.768 -34.5457
      vertex -34.2675 87.5317 -34.5457
      vertex -33.0043 113.65 -33.2825
    endloop
  endfacet
  facet normal -0.707107 0 0.707107
    outer loop
      vertex -33.0043 83.65 -33.2825
      vertex -34.2675 87.5317 -34.5457
      vertex -34.2675 85.7683 -34.5457
    endloop
  endfacet
  facet normal -0.707107 0 0.707107
    outer loop
      vertex -41.4345 84.604 -41.7127
      vertex -35.4534 85.2234 -35.7316
      vertex -41.2761 84.992 -41.5542
    endloop
  endfacet
  facet normal -0.707107 0 0.707107
    outer loop
      vertex -41.6465 84.271 -41.9247
      vertex -35.4534 85.2234 -35.7316
      vertex -41.4345 84.604 -41.7127
    endloop
  endfacet
  facet normal -0.707107 0 0.707107
    outer loop
      vertex -41.9028 84.0076 -42.181
      vertex -35.4534 85.2234 -35.7316
      vertex -41.6465 84.271 -41.9247
    endloop
  endfacet
  facet normal -0.707107 0 0.707107
    outer loop
      vertex -33.0043 83.65 -33.2825
      vertex -41.9028 84.0076 -42.181
      vertex -42.1923 83.8253 -42.4705
    endloop
  endfacet
  facet normal -0.707107 0 0.707107
    outer loop
      vertex -33.0043 83.65 -33.2825
      vertex -42.1923 83.8253 -42.4705
      vertex -42.5022 83.7322 -42.7804
    endloop
  endfacet
  facet normal -0.707107 0 0.707107
    outer loop
      vertex -34.2675 87.5317 -34.5457
      vertex -33.0043 83.65 -33.2825
      vertex -33.0043 113.65 -33.2825
    endloop
  endfacet
  facet normal -0.707107 0 0.707107
    outer loop
      vertex -35.4534 85.2234 -35.7316
      vertex -33.0043 83.65 -33.2825
      vertex -34.2675 85.7683 -34.5457
    endloop
  endfacet
  facet normal -0.707107 0 0.707107
    outer loop
      vertex -41.9028 84.0076 -42.181
      vertex -33.0043 83.65 -33.2825
      vertex -35.4534 85.2234 -35.7316
    endloop
  endfacet
  facet normal -0.707107 0 0.707107
    outer loop
      vertex -33.0043 83.65 -33.2825
      vertex -42.5022 83.7322 -42.7804
      vertex -54.2175 83.65 -54.4957
    endloop
  endfacet
  facet normal -0.707107 1.01938e-06 0.707106
    outer loop
      vertex -52.424 112.077 -52.7021
      vertex -48.9142 111.64 -49.1924
      vertex -46.8885 112.916 -47.1667
    endloop
  endfacet
  facet normal -0.707107 -2.29264e-06 0.707106
    outer loop
      vertex -51.2381 111.532 -51.5163
      vertex -48.9142 111.64 -49.1924
      vertex -52.424 112.077 -52.7021
    endloop
  endfacet
  facet normal -0.707107 -3.49668e-07 0.707106
    outer loop
      vertex -51.2381 111.532 -51.5163
      vertex -50.7081 109.797 -50.9863
      vertex -48.9142 111.64 -49.1924
    endloop
  endfacet
  facet normal -0.707107 0 0.707107
    outer loop
      vertex -51.2381 109.768 -51.5163
      vertex -50.7081 109.797 -50.9863
      vertex -51.2381 111.532 -51.5163
    endloop
  endfacet
  facet normal -0.707108 2.7048e-05 0.707106
    outer loop
      vertex -51.1596 109.673 -51.4378
      vertex -50.7081 109.797 -50.9863
      vertex -51.2381 109.768 -51.5163
    endloop
  endfacet
  facet normal -0.707103 -4.61236e-06 0.70711
    outer loop
      vertex -50.7081 109.797 -50.9863
      vertex -51.1596 109.673 -51.4378
      vertex -50.7873 109.673 -51.0654
    endloop
  endfacet
  facet normal -0.707107 0 0.707107
    outer loop
      vertex -52.1918 89.8332 -52.47
      vertex -52.424 88.0766 -52.7021
      vertex -51.3891 88.5724 -51.6673
    endloop
  endfacet
  facet normal -0.707107 0 0.707107
    outer loop
      vertex -52.656 87.6248 -52.9342
      vertex -52.1918 89.8332 -52.47
      vertex -53.3005 92.549 -53.5787
    endloop
  endfacet
  facet normal -0.707107 0 0.707107
    outer loop
      vertex -54.2175 83.65 -54.4957
      vertex -53.3005 92.549 -53.5787
      vertex -53.9857 95.5313 -54.2639
    endloop
  endfacet
  facet normal -0.707107 0 0.707107
    outer loop
      vertex -52.1918 89.8332 -52.47
      vertex -52.656 87.6248 -52.9342
      vertex -52.424 88.0766 -52.7021
    endloop
  endfacet
  facet normal -0.707107 0 0.707107
    outer loop
      vertex -53.3005 92.549 -53.5787
      vertex -53.1569 86.65 -53.435
      vertex -52.656 87.6248 -52.9342
    endloop
  endfacet
  facet normal -0.707107 4.73621e-07 0.707107
    outer loop
      vertex -54.2175 83.65 -54.4957
      vertex -46.8885 84.3842 -47.1667
      vertex -52.424 85.2234 -52.7021
    endloop
  endfacet
  facet normal -0.707107 0 0.707107
    outer loop
      vertex -44.7196 83.7322 -44.9978
      vertex -54.2175 83.65 -54.4957
      vertex -42.5022 83.7322 -42.7804
    endloop
  endfacet
  facet normal -0.707107 -4.02147e-06 0.707107
    outer loop
      vertex -46.8885 84.3842 -47.1667
      vertex -54.2175 83.65 -54.4957
      vertex -44.7196 83.7322 -44.9978
    endloop
  endfacet
  facet normal -0.707107 0 0.707107
    outer loop
      vertex -52.656 85.6752 -52.9342
      vertex -54.2175 83.65 -54.4957
      vertex -52.424 85.2234 -52.7021
    endloop
  endfacet
  facet normal -0.707107 0 0.707107
    outer loop
      vertex -53.1569 86.65 -53.435
      vertex -54.2175 83.65 -54.4957
      vertex -52.656 85.6752 -52.9342
    endloop
  endfacet
  facet normal -0.707107 0 0.707107
    outer loop
      vertex -53.3005 92.549 -53.5787
      vertex -54.2175 83.65 -54.4957
      vertex -53.1569 86.65 -53.435
    endloop
  endfacet
  facet normal -0.707107 0 0.707107
    outer loop
      vertex -54.2175 83.65 -54.4957
      vertex -53.9857 95.5313 -54.2639
      vertex -54.2175 98.65 -54.4957
    endloop
  endfacet
  facet normal -0.707107 0 0.707107
    outer loop
      vertex -52.424 88.0766 -52.7021
      vertex -51.3891 87.65 -51.6673
      vertex -51.3891 88.5724 -51.6673
    endloop
  endfacet
  facet normal -0.707107 0 0.707107
    outer loop
      vertex -51.2381 87.5317 -51.5163
      vertex -51.3891 87.65 -51.6673
      vertex -52.424 88.0766 -52.7021
    endloop
  endfacet
  facet normal -0.707114 -1.83579e-05 0.7071
    outer loop
      vertex -51.2381 87.5317 -51.5163
      vertex -51.1731 87.6277 -51.4513
      vertex -51.3891 87.65 -51.6673
    endloop
  endfacet
  facet normal -0.707107 -2.73693e-05 0.707106
    outer loop
      vertex -51.2381 87.5317 -51.5163
      vertex -51.1596 87.6271 -51.4378
      vertex -51.1731 87.6277 -51.4513
    endloop
  endfacet
  facet normal -0.707108 -2.70483e-05 0.707106
    outer loop
      vertex -50.7081 87.5028 -50.9863
      vertex -51.1596 87.6271 -51.4378
      vertex -51.2381 87.5317 -51.5163
    endloop
  endfacet
  facet normal -0.707103 4.61264e-06 0.70711
    outer loop
      vertex -51.1596 87.6271 -51.4378
      vertex -50.7081 87.5028 -50.9863
      vertex -50.7873 87.6271 -51.0654
    endloop
  endfacet
  facet normal -0.707107 0 0.707107
    outer loop
      vertex -51.2381 85.7683 -51.5163
      vertex -50.7081 87.5028 -50.9863
      vertex -51.2381 87.5317 -51.5163
    endloop
  endfacet
  facet normal -0.707107 3.49668e-07 0.707106
    outer loop
      vertex -51.2381 85.7683 -51.5163
      vertex -48.9142 85.6596 -49.1924
      vertex -50.7081 87.5028 -50.9863
    endloop
  endfacet
  facet normal -0.707107 2.29264e-06 0.707106
    outer loop
      vertex -52.424 85.2234 -52.7021
      vertex -48.9142 85.6596 -49.1924
      vertex -51.2381 85.7683 -51.5163
    endloop
  endfacet
  facet normal -0.707107 -1.01938e-06 0.707106
    outer loop
      vertex -48.9142 85.6596 -49.1924
      vertex -52.424 85.2234 -52.7021
      vertex -46.8885 84.3842 -47.1667
    endloop
  endfacet
  facet normal 0 0 0
    outer loop
      vertex -54.2175 98.65 -54.4957
      vertex -54.2175 113.65 -54.4957
      vertex -54.2175 83.65 -54.4957
    endloop
  endfacet
  facet normal 0.707107 -0 0.707107
    outer loop
      vertex -33.0043 83.65 -33.2825
      vertex -32.2972 103.15 -33.9896
      vertex -33.0043 103.15 -33.2825
    endloop
  endfacet
  facet normal 0.707107 0 0.707107
    outer loop
      vertex -32.2972 103.15 -33.9896
      vertex -33.0043 83.65 -33.2825
      vertex -32.2972 83.65 -33.9896
    endloop
  endfacet
  facet normal 0.707107 -0 0.707107
    outer loop
      vertex -33.0043 110.15 -33.2825
      vertex -32.2972 113.65 -33.9896
      vertex -33.0043 113.65 -33.2825
    endloop
  endfacet
  facet normal 0.707107 0 0.707107
    outer loop
      vertex -32.2972 113.65 -33.9896
      vertex -33.0043 110.15 -33.2825
      vertex -32.2972 110.15 -33.9896
    endloop
  endfacet
  facet normal 0 0 0
    outer loop
      vertex -33.0043 110.15 -33.2825
      vertex -33.0043 113.65 -33.2825
      vertex -33.0043 83.65 -33.2825
    endloop
  endfacet
  facet normal 0 0 0
    outer loop
      vertex -33.0043 83.65 -33.2825
      vertex -33.0043 103.15 -33.2825
      vertex -33.0043 110.15 -33.2825
    endloop
  endfacet
  facet normal 0 -1 0
    outer loop
      vertex -54.2175 83.65 -54.4957
      vertex -32.2972 83.65 -33.9896
      vertex -33.0043 83.65 -33.2825
    endloop
  endfacet
  facet normal 0 -1 0
    outer loop
      vertex -53.5104 83.65 -55.2028
      vertex -32.2972 83.65 -33.9896
      vertex -54.2175 83.65 -54.4957
    endloop
  endfacet
  facet normal 0 -1 0
    outer loop
      vertex -14.5 83.65 -60.5
      vertex -32.2972 83.65 -33.9896
      vertex -53.5104 83.65 -55.2028
    endloop
  endfacet
  facet normal 0 -1 0
    outer loop
      vertex -32.2972 83.65 -33.9896
      vertex -14.5 83.65 -60.5
      vertex -9.5 83.65 -59.5
    endloop
  endfacet
  facet normal 0 -1 -0
    outer loop
      vertex -9.5 83.65 -59.5
      vertex -14.5 83.65 -60.5
      vertex -9.5 83.65 -60.5
    endloop
  endfacet
  facet normal 0 1 0
    outer loop
      vertex -32.2972 113.65 -33.9896
      vertex -54.2175 113.65 -54.4957
      vertex -33.0043 113.65 -33.2825
    endloop
  endfacet
  facet normal 0 1 0
    outer loop
      vertex -32.2972 113.65 -33.9896
      vertex -53.5104 113.65 -55.2028
      vertex -54.2175 113.65 -54.4957
    endloop
  endfacet
  facet normal 0 1 -0
    outer loop
      vertex -14.5 113.65 -60.5
      vertex -32.2972 113.65 -33.9896
      vertex -9.5 113.65 -59.5
    endloop
  endfacet
  facet normal 0 1 0
    outer loop
      vertex -14.5 113.65 -60.5
      vertex -9.5 113.65 -59.5
      vertex -9.5 113.65 -60.5
    endloop
  endfacet
  facet normal 0 1 0
    outer loop
      vertex -32.2972 113.65 -33.9896
      vertex -14.5 113.65 -60.5
      vertex -53.5104 113.65 -55.2028
    endloop
  endfacet
  facet normal 0.745646 -0 0.666342
    outer loop
      vertex -32.2972 83.65 -33.9896
      vertex -28.2929 103.15 -38.4705
      vertex -32.2972 103.15 -33.9896
    endloop
  endfacet
  facet normal 0.745646 -3.99884e-08 0.666342
    outer loop
      vertex -28.2929 103.15 -38.4705
      vertex -32.2972 83.65 -33.9896
      vertex -9.54468 86.15 -59.45
    endloop
  endfacet
  facet normal 0.745646 3.04543e-07 0.666342
    outer loop
      vertex -9.5 83.65 -59.5
      vertex -9.54468 86.15 -59.45
      vertex -32.2972 83.65 -33.9896
    endloop
  endfacet
  facet normal 0.745639 0 0.66635
    outer loop
      vertex -9.54468 86.15 -59.45
      vertex -9.5 83.65 -59.5
      vertex -9.5 86.15 -59.5
    endloop
  endfacet
  facet normal 0.745646 1.79481e-07 0.666342
    outer loop
      vertex -28.2929 110.15 -38.4705
      vertex -9.5 113.65 -59.5
      vertex -32.2972 113.65 -33.9896
    endloop
  endfacet
  facet normal 0.745646 0 0.666342
    outer loop
      vertex -28.2929 110.15 -38.4705
      vertex -32.2972 113.65 -33.9896
      vertex -32.2972 110.15 -33.9896
    endloop
  endfacet
  facet normal 0.745646 -3.0616e-07 0.666342
    outer loop
      vertex -9.5 113.65 -59.5
      vertex -28.2929 110.15 -38.4705
      vertex -9.54468 111.15 -59.45
    endloop
  endfacet
  facet normal 0.745646 -0 0.666342
    outer loop
      vertex -28.2929 103.15 -38.4705
      vertex -9.54468 111.15 -59.45
      vertex -28.2929 110.15 -38.4705
    endloop
  endfacet
  facet normal 0.745646 0 0.666342
    outer loop
      vertex -9.54468 111.15 -59.45
      vertex -28.2929 103.15 -38.4705
      vertex -9.54468 86.15 -59.45
    endloop
  endfacet
  facet normal 0.745639 0 0.66635
    outer loop
      vertex -9.5 113.65 -59.5
      vertex -9.54468 111.15 -59.45
      vertex -9.5 111.15 -59.5
    endloop
  endfacet
  facet normal 0 0 -1
    outer loop
      vertex -14.5 83.65 -60.5
      vertex -9.5 86.15 -60.5
      vertex -9.5 83.65 -60.5
    endloop
  endfacet
  facet normal -0 0 -1
    outer loop
      vertex -9.5 86.15 -60.5
      vertex -14.5 83.65 -60.5
      vertex -14.5 86.15 -60.5
    endloop
  endfacet
  facet normal 0 0 -1
    outer loop
      vertex -14.5 111.15 -60.5
      vertex -9.5 113.65 -60.5
      vertex -9.5 111.15 -60.5
    endloop
  endfacet
  facet normal -0 0 -1
    outer loop
      vertex -9.5 113.65 -60.5
      vertex -14.5 111.15 -60.5
      vertex -14.5 113.65 -60.5
    endloop
  endfacet
  facet normal -0.707107 0 -0.707107
    outer loop
      vertex -53.5104 83.65 -55.2028
      vertex -54.2175 113.65 -54.4957
      vertex -53.5104 113.65 -55.2028
    endloop
  endfacet
  facet normal -0.707107 -0 -0.707107
    outer loop
      vertex -54.2175 113.65 -54.4957
      vertex -53.5104 83.65 -55.2028
      vertex -54.2175 83.65 -54.4957
    endloop
  endfacet
  facet normal 1 -0 0
    outer loop
      vertex -9.5 83.65 -59.5
      vertex -9.5 86.15 -60.5
      vertex -9.5 86.15 -59.5
    endloop
  endfacet
  facet normal 1 0 0
    outer loop
      vertex -9.5 86.15 -60.5
      vertex -9.5 83.65 -59.5
      vertex -9.5 83.65 -60.5
    endloop
  endfacet
  facet normal 1 -0 0
    outer loop
      vertex -9.5 111.15 -59.5
      vertex -9.5 113.65 -60.5
      vertex -9.5 113.65 -59.5
    endloop
  endfacet
  facet normal 1 0 0
    outer loop
      vertex -9.5 113.65 -60.5
      vertex -9.5 111.15 -59.5
      vertex -9.5 111.15 -60.5
    endloop
  endfacet
  facet normal -0.134555 0 -0.990906
    outer loop
      vertex -49.3597 88.0766 -55.7664
      vertex -46.6153 109.768 -56.1391
      vertex -46.6153 87.5317 -56.1391
    endloop
  endfacet
  facet normal -0.134555 0 -0.990906
    outer loop
      vertex -49.3597 88.0766 -55.7664
      vertex -49.3597 109.223 -55.7664
      vertex -46.6153 109.768 -56.1391
    endloop
  endfacet
  facet normal -0.134554 0 -0.990906
    outer loop
      vertex -49.6657 87.8192 -55.7249
      vertex -49.3597 109.223 -55.7664
      vertex -49.3597 88.0766 -55.7664
    endloop
  endfacet
  facet normal -0.134554 0 -0.990906
    outer loop
      vertex -49.6657 87.8192 -55.7249
      vertex -49.6657 109.481 -55.7249
      vertex -49.3597 109.223 -55.7664
    endloop
  endfacet
  facet normal -0.134554 0 -0.990906
    outer loop
      vertex -51.0558 86.65 -55.5361
      vertex -49.6657 109.481 -55.7249
      vertex -49.6657 87.8192 -55.7249
    endloop
  endfacet
  facet normal -0.134554 0 -0.990906
    outer loop
      vertex -49.6657 109.481 -55.7249
      vertex -51.0558 86.65 -55.5361
      vertex -51.0558 110.65 -55.5361
    endloop
  endfacet
  facet normal -0.13457 0 -0.990904
    outer loop
      vertex -14.5 83.65 -60.5
      vertex -14.55 86.15 -60.4932
      vertex -14.5 86.15 -60.5
    endloop
  endfacet
  facet normal -0.134555 -0 -0.990906
    outer loop
      vertex -46.6153 87.5317 -56.1391
      vertex -14.55 86.15 -60.4932
      vertex -46.6153 85.7683 -56.1391
    endloop
  endfacet
  facet normal -0.134555 3.13725e-07 -0.990906
    outer loop
      vertex -14.5 83.65 -60.5
      vertex -46.6153 85.7683 -56.1391
      vertex -14.55 86.15 -60.4932
    endloop
  endfacet
  facet normal -0.134555 -1.70609e-08 -0.990906
    outer loop
      vertex -53.5104 83.65 -55.2028
      vertex -46.6153 85.7683 -56.1391
      vertex -14.5 83.65 -60.5
    endloop
  endfacet
  facet normal -0.134555 0 -0.990906
    outer loop
      vertex -51.0558 86.65 -55.5361
      vertex -53.5104 83.65 -55.2028
      vertex -51.0558 110.65 -55.5361
    endloop
  endfacet
  facet normal -0.134554 -3.79623e-07 -0.990906
    outer loop
      vertex -49.6657 85.4808 -55.7249
      vertex -53.5104 83.65 -55.2028
      vertex -51.0558 86.65 -55.5361
    endloop
  endfacet
  facet normal -0.134554 -4.92215e-07 -0.990906
    outer loop
      vertex -49.3597 85.2234 -55.7664
      vertex -53.5104 83.65 -55.2028
      vertex -49.6657 85.4808 -55.7249
    endloop
  endfacet
  facet normal -0.134556 5.82607e-06 -0.990906
    outer loop
      vertex -46.6153 85.7683 -56.1391
      vertex -53.5104 83.65 -55.2028
      vertex -49.3597 85.2234 -55.7664
    endloop
  endfacet
  facet normal -0.13457 0 -0.990904
    outer loop
      vertex -14.55 111.15 -60.4932
      vertex -14.5 113.65 -60.5
      vertex -14.5 111.15 -60.5
    endloop
  endfacet
  facet normal -0.134555 0 -0.990906
    outer loop
      vertex -14.55 86.15 -60.4932
      vertex -46.6153 87.5317 -56.1391
      vertex -14.55 111.15 -60.4932
    endloop
  endfacet
  facet normal -0.134555 -0 -0.990906
    outer loop
      vertex -46.6153 109.768 -56.1391
      vertex -14.55 111.15 -60.4932
      vertex -46.6153 87.5317 -56.1391
    endloop
  endfacet
  facet normal -0.134555 -0 -0.990906
    outer loop
      vertex -46.6153 111.532 -56.1391
      vertex -14.55 111.15 -60.4932
      vertex -46.6153 109.768 -56.1391
    endloop
  endfacet
  facet normal -0.134555 -3.13725e-07 -0.990906
    outer loop
      vertex -14.55 111.15 -60.4932
      vertex -46.6153 111.532 -56.1391
      vertex -14.5 113.65 -60.5
    endloop
  endfacet
  facet normal -0.134556 -5.82607e-06 -0.990906
    outer loop
      vertex -53.5104 113.65 -55.2028
      vertex -46.6153 111.532 -56.1391
      vertex -49.3597 112.077 -55.7664
    endloop
  endfacet
  facet normal -0.134555 1.70609e-08 -0.990906
    outer loop
      vertex -46.6153 111.532 -56.1391
      vertex -53.5104 113.65 -55.2028
      vertex -14.5 113.65 -60.5
    endloop
  endfacet
  facet normal -0.134554 4.92215e-07 -0.990906
    outer loop
      vertex -49.6657 111.819 -55.7249
      vertex -53.5104 113.65 -55.2028
      vertex -49.3597 112.077 -55.7664
    endloop
  endfacet
  facet normal -0.134554 3.79623e-07 -0.990906
    outer loop
      vertex -51.0558 110.65 -55.5361
      vertex -53.5104 113.65 -55.2028
      vertex -49.6657 111.819 -55.7249
    endloop
  endfacet
  facet normal -0.134555 -0 -0.990906
    outer loop
      vertex -53.5104 113.65 -55.2028
      vertex -51.0558 110.65 -55.5361
      vertex -53.5104 83.65 -55.2028
    endloop
  endfacet
  facet normal -0.707107 0 0.707107
    outer loop
      vertex -33.0043 103.15 -33.2825
      vertex -28.4081 110.15 -28.6863
      vertex -33.0043 110.15 -33.2825
    endloop
  endfacet
  facet normal -0.707107 0 0.707107
    outer loop
      vertex -28.4081 110.15 -28.6863
      vertex -33.0043 103.15 -33.2825
      vertex -28.4081 103.15 -28.6863
    endloop
  endfacet
  facet normal 0.707107 -0 0.707107
    outer loop
      vertex -28.4081 103.15 -28.6863
      vertex -23.4584 110.15 -33.636
      vertex -28.4081 110.15 -28.6863
    endloop
  endfacet
  facet normal 0.707107 0 0.707107
    outer loop
      vertex -23.4584 110.15 -33.636
      vertex -28.4081 103.15 -28.6863
      vertex -23.4584 103.15 -33.636
    endloop
  endfacet
  facet normal 0 -1 0
    outer loop
      vertex -33.0043 103.15 -33.2825
      vertex -29.375 103.15 -32.4845
      vertex -28.4081 103.15 -28.6863
    endloop
  endfacet
  facet normal 0 -1 0
    outer loop
      vertex -29.375 103.15 -32.4845
      vertex -33.0043 103.15 -33.2825
      vertex -29.7731 103.15 -33.174
    endloop
  endfacet
  facet normal 0 -1 0
    outer loop
      vertex -32.2972 103.15 -33.9896
      vertex -29.7731 103.15 -33.174
      vertex -33.0043 103.15 -33.2825
    endloop
  endfacet
  facet normal 0 -1 0
    outer loop
      vertex -32.2972 103.15 -33.9896
      vertex -30.25 103.15 -34
      vertex -29.7731 103.15 -33.174
    endloop
  endfacet
  facet normal 0 -1 0
    outer loop
      vertex -32.2972 103.15 -33.9896
      vertex -29.8519 103.15 -34.6896
      vertex -30.25 103.15 -34
    endloop
  endfacet
  facet normal 0 -1 0
    outer loop
      vertex -32.2972 103.15 -33.9896
      vertex -29.375 103.15 -35.5155
      vertex -29.8519 103.15 -34.6896
    endloop
  endfacet
  facet normal 0 -1 0
    outer loop
      vertex -29.375 103.15 -35.5155
      vertex -28.2929 103.15 -38.4705
      vertex -27.625 103.15 -35.5155
    endloop
  endfacet
  facet normal 0 -1 0
    outer loop
      vertex -28.2929 103.15 -38.4705
      vertex -29.375 103.15 -35.5155
      vertex -32.2972 103.15 -33.9896
    endloop
  endfacet
  facet normal 0 -1 0
    outer loop
      vertex -27.625 103.15 -32.4845
      vertex -28.4081 103.15 -28.6863
      vertex -29.375 103.15 -32.4845
    endloop
  endfacet
  facet normal 0 -1 0
    outer loop
      vertex -23.4584 103.15 -33.636
      vertex -27.625 103.15 -32.4845
      vertex -27.2269 103.15 -33.174
    endloop
  endfacet
  facet normal 0 -1 0
    outer loop
      vertex -27.625 103.15 -32.4845
      vertex -23.4584 103.15 -33.636
      vertex -28.4081 103.15 -28.6863
    endloop
  endfacet
  facet normal 0 -1 0
    outer loop
      vertex -26.75 103.15 -34
      vertex -23.4584 103.15 -33.636
      vertex -27.2269 103.15 -33.174
    endloop
  endfacet
  facet normal 0 -1 0
    outer loop
      vertex -27.1481 103.15 -34.6896
      vertex -23.4584 103.15 -33.636
      vertex -26.75 103.15 -34
    endloop
  endfacet
  facet normal 0 -1 0
    outer loop
      vertex -27.625 103.15 -35.5155
      vertex -23.4584 103.15 -33.636
      vertex -27.1481 103.15 -34.6896
    endloop
  endfacet
  facet normal 0 -1 0
    outer loop
      vertex -23.4584 103.15 -33.636
      vertex -27.625 103.15 -35.5155
      vertex -28.2929 103.15 -38.4705
    endloop
  endfacet
  facet normal 0 1 0
    outer loop
      vertex -23.4584 110.15 -33.636
      vertex -27.625 110.15 -32.4845
      vertex -28.4081 110.15 -28.6863
    endloop
  endfacet
  facet normal 0 1 0
    outer loop
      vertex -27.625 110.15 -32.4845
      vertex -23.4584 110.15 -33.636
      vertex -27.2881 110.15 -33.0679
    endloop
  endfacet
  facet normal 0 1 0
    outer loop
      vertex -23.4584 110.15 -33.636
      vertex -26.75 110.15 -34
      vertex -27.2881 110.15 -33.0679
    endloop
  endfacet
  facet normal 0 1 0
    outer loop
      vertex -23.4584 110.15 -33.636
      vertex -27.0869 110.15 -34.5835
      vertex -26.75 110.15 -34
    endloop
  endfacet
  facet normal 0 1 0
    outer loop
      vertex -23.4584 110.15 -33.636
      vertex -27.625 110.15 -35.5155
      vertex -27.0869 110.15 -34.5835
    endloop
  endfacet
  facet normal 0 1 0
    outer loop
      vertex -27.625 110.15 -35.5155
      vertex -28.2929 110.15 -38.4705
      vertex -29.375 110.15 -35.5155
    endloop
  endfacet
  facet normal 0 1 0
    outer loop
      vertex -28.2929 110.15 -38.4705
      vertex -27.625 110.15 -35.5155
      vertex -23.4584 110.15 -33.636
    endloop
  endfacet
  facet normal 0 1 0
    outer loop
      vertex -29.375 110.15 -32.4845
      vertex -28.4081 110.15 -28.6863
      vertex -27.625 110.15 -32.4845
    endloop
  endfacet
  facet normal 0 1 0
    outer loop
      vertex -33.0043 110.15 -33.2825
      vertex -29.375 110.15 -32.4845
      vertex -29.7119 110.15 -33.0679
    endloop
  endfacet
  facet normal 0 1 -0
    outer loop
      vertex -29.375 110.15 -32.4845
      vertex -33.0043 110.15 -33.2825
      vertex -28.4081 110.15 -28.6863
    endloop
  endfacet
  facet normal 0 1 0
    outer loop
      vertex -29.7119 110.15 -33.0679
      vertex -32.2972 110.15 -33.9896
      vertex -33.0043 110.15 -33.2825
    endloop
  endfacet
  facet normal 0 1 -0
    outer loop
      vertex -30.25 110.15 -34
      vertex -32.2972 110.15 -33.9896
      vertex -29.7119 110.15 -33.0679
    endloop
  endfacet
  facet normal 0 1 0
    outer loop
      vertex -29.9131 110.15 -34.5835
      vertex -32.2972 110.15 -33.9896
      vertex -30.25 110.15 -34
    endloop
  endfacet
  facet normal 0 1 0
    outer loop
      vertex -29.375 110.15 -35.5155
      vertex -32.2972 110.15 -33.9896
      vertex -29.9131 110.15 -34.5835
    endloop
  endfacet
  facet normal 0 1 0
    outer loop
      vertex -32.2972 110.15 -33.9896
      vertex -29.375 110.15 -35.5155
      vertex -28.2929 110.15 -38.4705
    endloop
  endfacet
  facet normal 0.707107 0 -0.707107
    outer loop
      vertex -28.2929 103.15 -38.4705
      vertex -23.4584 110.15 -33.636
      vertex -23.4584 103.15 -33.636
    endloop
  endfacet
  facet normal 0.707107 0 -0.707107
    outer loop
      vertex -23.4584 110.15 -33.636
      vertex -28.2929 103.15 -38.4705
      vertex -28.2929 110.15 -38.4705
    endloop
  endfacet
  facet normal 0.0323084 0.998956 -0.0323084
    outer loop
      vertex -13.5 86.15 -59.45
      vertex -41.145 87.6271 -41.4232
      vertex -35.8404 87.6271 -36.1186
    endloop
  endfacet
  facet normal 0.0323084 0.998956 -0.0323084
    outer loop
      vertex -41.145 87.6271 -41.4232
      vertex -13.5 86.15 -59.45
      vertex -42.5022 87.6271 -42.7804
    endloop
  endfacet
  facet normal 0.0323084 0.998956 -0.0323087
    outer loop
      vertex -50.7873 87.6271 -51.0654
      vertex -13.5 86.15 -59.45
      vertex -51.1596 87.6271 -51.4378
    endloop
  endfacet
  facet normal 0.0323084 0.998956 -0.0323084
    outer loop
      vertex -42.5022 87.6271 -42.7804
      vertex -13.5 86.15 -59.45
      vertex -50.7873 87.6271 -51.0654
    endloop
  endfacet
  facet normal 0.707106 -0 0.707108
    outer loop
      vertex -51.3891 108.728 -51.6673
      vertex -50.3284 109.65 -52.7279
      vertex -51.3891 109.65 -51.6673
    endloop
  endfacet
  facet normal 0.707106 0 0.707108
    outer loop
      vertex -50.3284 109.65 -52.7279
      vertex -51.3891 108.728 -51.6673
      vertex -50.3284 87.65 -52.7279
    endloop
  endfacet
  facet normal 0.707106 -0 0.707108
    outer loop
      vertex -51.3891 88.5724 -51.6673
      vertex -50.3284 87.65 -52.7279
      vertex -51.3891 108.728 -51.6673
    endloop
  endfacet
  facet normal 0.707106 0 0.707108
    outer loop
      vertex -50.3284 87.65 -52.7279
      vertex -51.3891 88.5724 -51.6673
      vertex -51.3891 87.65 -51.6673
    endloop
  endfacet
  facet normal -0.678005 0 -0.735057
    outer loop
      vertex -28.8297 87.8939 -42.5429
      vertex -33.8583 109.786 -37.9047
      vertex -28.8297 109.406 -42.5429
    endloop
  endfacet
  facet normal -0.678005 -1.95435e-08 -0.735057
    outer loop
      vertex -33.8583 87.5141 -37.9047
      vertex -33.8583 109.786 -37.9047
      vertex -28.8297 87.8939 -42.5429
    endloop
  endfacet
  facet normal -0.678005 -1.95435e-08 -0.735057
    outer loop
      vertex -35.8185 87.6285 -36.0966
      vertex -33.8583 109.786 -37.9047
      vertex -33.8583 87.5141 -37.9047
    endloop
  endfacet
  facet normal -0.678005 0 -0.735057
    outer loop
      vertex -33.8583 109.786 -37.9047
      vertex -35.8185 87.6285 -36.0966
      vertex -35.8185 109.671 -36.0966
    endloop
  endfacet
  facet normal -0.678005 -0 -0.735057
    outer loop
      vertex -28.8297 87.8939 -42.5429
      vertex -10.5 86.15 -59.45
      vertex -28.8297 87.2204 -42.5429
    endloop
  endfacet
  facet normal -0.678005 0 -0.735057
    outer loop
      vertex -10.5 86.15 -59.45
      vertex -28.8297 87.8939 -42.5429
      vertex -10.5 111.15 -59.45
    endloop
  endfacet
  facet normal -0.678005 -0 -0.735057
    outer loop
      vertex -28.8297 109.406 -42.5429
      vertex -10.5 111.15 -59.45
      vertex -28.8297 87.8939 -42.5429
    endloop
  endfacet
  facet normal -0.678005 0 -0.735057
    outer loop
      vertex -10.5 111.15 -59.45
      vertex -28.8297 109.406 -42.5429
      vertex -28.8297 110.08 -42.5429
    endloop
  endfacet
  facet normal 0 0.998002 -0.0631841
    outer loop
      vertex -13.5 86.15 -59.45
      vertex -28.8297 87.2204 -42.5429
      vertex -10.5 86.15 -59.45
    endloop
  endfacet
  facet normal 1.73987e-05 0.998003 -0.0631624
    outer loop
      vertex -33.8583 87.5141 -37.9047
      vertex -35.8404 87.6271 -36.1186
      vertex -35.8185 87.6285 -36.0966
    endloop
  endfacet
  facet normal -2.24832e-05 0.998 -0.0632065
    outer loop
      vertex -29.1874 87.1978 -42.9006
      vertex -35.8404 87.6271 -36.1186
      vertex -33.8583 87.5141 -37.9047
    endloop
  endfacet
  facet normal 1.58509e-05 0.998003 -0.063169
    outer loop
      vertex -29.1874 87.1978 -42.9006
      vertex -13.5 86.15 -59.45
      vertex -35.8404 87.6271 -36.1186
    endloop
  endfacet
  facet normal -2.46667e-06 0.998002 -0.0631863
    outer loop
      vertex -28.8297 87.2204 -42.5429
      vertex -13.5 86.15 -59.45
      vertex -29.1874 87.1978 -42.9006
    endloop
  endfacet
  facet normal 1.92914e-05 -0.998003 -0.0631643
    outer loop
      vertex -35.8404 109.673 -36.1186
      vertex -33.8583 109.786 -37.9047
      vertex -35.8185 109.671 -36.0966
    endloop
  endfacet
  facet normal 8.52656e-06 -0.998002 -0.0631762
    outer loop
      vertex -35.8404 109.673 -36.1186
      vertex -29.1874 110.102 -42.9006
      vertex -33.8583 109.786 -37.9047
    endloop
  endfacet
  facet normal 1.94075e-06 -0.998002 -0.0631826
    outer loop
      vertex -29.1874 110.102 -42.9006
      vertex -35.8404 109.673 -36.1186
      vertex -13.5 111.15 -59.45
    endloop
  endfacet
  facet normal -2.23049e-06 -0.998002 -0.0631866
    outer loop
      vertex -13.5 111.15 -59.45
      vertex -28.8297 110.08 -42.5429
      vertex -29.1874 110.102 -42.9006
    endloop
  endfacet
  facet normal 0 -0.998002 -0.0631845
    outer loop
      vertex -28.8297 110.08 -42.5429
      vertex -13.5 111.15 -59.45
      vertex -10.5 111.15 -59.45
    endloop
  endfacet
  facet normal 0 -1 0
    outer loop
      vertex -14.5 111.15 -60.5
      vertex -13.5 111.15 -59.45
      vertex -14.55 111.15 -59.45
    endloop
  endfacet
  facet normal 0 -1 -0
    outer loop
      vertex -13.5 111.15 -59.45
      vertex -14.5 111.15 -60.5
      vertex -10.5 111.15 -59.45
    endloop
  endfacet
  facet normal 0 -1 0
    outer loop
      vertex -9.5 111.15 -60.5
      vertex -10.5 111.15 -59.45
      vertex -14.5 111.15 -60.5
    endloop
  endfacet
  facet normal 0 -1 0
    outer loop
      vertex -14.5 111.15 -60.5
      vertex -14.55 111.15 -59.45
      vertex -14.55 111.15 -60.4932
    endloop
  endfacet
  facet normal -0 -1 -0
    outer loop
      vertex -9.5 111.15 -59.5
      vertex -10.5 111.15 -59.45
      vertex -9.5 111.15 -60.5
    endloop
  endfacet
  facet normal 0 -1 0
    outer loop
      vertex -10.5 111.15 -59.45
      vertex -9.5 111.15 -59.5
      vertex -9.54468 111.15 -59.45
    endloop
  endfacet
  facet normal 0.0515731 -0.997337 0.0515733
    outer loop
      vertex -50.3284 109.65 -52.7279
      vertex -51.1731 109.672 -51.4513
      vertex -51.3891 109.65 -51.6673
    endloop
  endfacet
  facet normal 0.051575 -0.997336 0.0515745
    outer loop
      vertex -50.3284 109.65 -52.7279
      vertex -14.55 111.109 -60.2964
      vertex -51.1731 109.672 -51.4513
    endloop
  endfacet
  facet normal 0.0516119 -0.997325 0.051751
    outer loop
      vertex -14.55 111.109 -60.2964
      vertex -50.3284 109.65 -52.7279
      vertex -14.55 111.107 -60.327
    endloop
  endfacet
  facet normal 0.0391932 -0.999232 0
    outer loop
      vertex -51.1596 109.673 -51.4378
      vertex -14.55 111.109 -60.2964
      vertex -14.55 111.109 -59.45
    endloop
  endfacet
  facet normal 0.0391444 -0.999234 -0.000202205
    outer loop
      vertex -14.55 111.109 -60.2964
      vertex -51.1596 109.673 -51.4378
      vertex -51.1731 109.672 -51.4513
    endloop
  endfacet
  facet normal 0.0391922 -0.999232 -4.50153e-06
    outer loop
      vertex -51.1596 109.673 -51.4378
      vertex -14.55 111.109 -59.45
      vertex -13.5 111.15 -59.45
    endloop
  endfacet
  facet normal 0.0323086 -0.998956 -0.0323086
    outer loop
      vertex -13.5 111.15 -59.45
      vertex -41.145 109.673 -41.4232
      vertex -42.5022 109.673 -42.7804
    endloop
  endfacet
  facet normal 0.0323086 -0.998956 -0.0323086
    outer loop
      vertex -13.5 111.15 -59.45
      vertex -42.5022 109.673 -42.7804
      vertex -50.7873 109.673 -51.0654
    endloop
  endfacet
  facet normal 0.0323086 -0.998956 -0.0323086
    outer loop
      vertex -41.145 109.673 -41.4232
      vertex -13.5 111.15 -59.45
      vertex -35.8404 109.673 -36.1186
    endloop
  endfacet
  facet normal 0.0323085 -0.998956 -0.0323089
    outer loop
      vertex -13.5 111.15 -59.45
      vertex -50.7873 109.673 -51.0654
      vertex -51.1596 109.673 -51.4378
    endloop
  endfacet
  facet normal 0 1 0
    outer loop
      vertex -9.5 86.15 -59.5
      vertex -10.5 86.15 -59.45
      vertex -9.54468 86.15 -59.45
    endloop
  endfacet
  facet normal 0 1 0
    outer loop
      vertex -10.5 86.15 -59.45
      vertex -9.5 86.15 -60.5
      vertex -13.5 86.15 -59.45
    endloop
  endfacet
  facet normal 0 1 0
    outer loop
      vertex -10.5 86.15 -59.45
      vertex -9.5 86.15 -59.5
      vertex -9.5 86.15 -60.5
    endloop
  endfacet
  facet normal 0 1 0
    outer loop
      vertex -13.5 86.15 -59.45
      vertex -14.5 86.15 -60.5
      vertex -14.55 86.15 -59.45
    endloop
  endfacet
  facet normal 0 1 0
    outer loop
      vertex -13.5 86.15 -59.45
      vertex -9.5 86.15 -60.5
      vertex -14.5 86.15 -60.5
    endloop
  endfacet
  facet normal 0 1 0
    outer loop
      vertex -14.55 86.15 -59.45
      vertex -14.5 86.15 -60.5
      vertex -14.55 86.15 -60.4932
    endloop
  endfacet
  facet normal 0.0391922 0.999232 -3.55005e-06
    outer loop
      vertex -14.55 86.1912 -59.45
      vertex -51.1596 87.6271 -51.4378
      vertex -13.5 86.15 -59.45
    endloop
  endfacet
  facet normal 0.039193 0.999232 -0
    outer loop
      vertex -14.55 86.1912 -60.2964
      vertex -51.1596 87.6271 -51.4378
      vertex -14.55 86.1912 -59.45
    endloop
  endfacet
  facet normal 0.039254 0.999229 0.000252382
    outer loop
      vertex -51.1596 87.6271 -51.4378
      vertex -14.55 86.1912 -60.2964
      vertex -51.1731 87.6277 -51.4513
    endloop
  endfacet
  facet normal 0.207758 0 0.97818
    outer loop
      vertex -50.3284 109.65 -52.7279
      vertex -14.55 86.1928 -60.327
      vertex -14.55 111.107 -60.327
    endloop
  endfacet
  facet normal 0.207758 0 0.97818
    outer loop
      vertex -14.55 86.1928 -60.327
      vertex -50.3284 109.65 -52.7279
      vertex -50.3284 87.65 -52.7279
    endloop
  endfacet
  facet normal 0.0515731 0.997337 0.0515733
    outer loop
      vertex -51.1731 87.6277 -51.4513
      vertex -50.3284 87.65 -52.7279
      vertex -51.3891 87.65 -51.6673
    endloop
  endfacet
  facet normal 0.051575 0.997336 0.0515745
    outer loop
      vertex -14.55 86.1912 -60.2964
      vertex -50.3284 87.65 -52.7279
      vertex -51.1731 87.6277 -51.4513
    endloop
  endfacet
  facet normal 0.05156 0.997341 0.051503
    outer loop
      vertex -50.3284 87.65 -52.7279
      vertex -14.55 86.1912 -60.2964
      vertex -14.55 86.1928 -60.327
    endloop
  endfacet
  facet normal 1 0 0
    outer loop
      vertex -14.55 86.1912 -59.45
      vertex -14.55 86.15 -59.45
      vertex -14.55 86.1912 -60.2964
    endloop
  endfacet
  facet normal 1 0 0
    outer loop
      vertex -14.55 111.109 -60.2964
      vertex -14.55 111.15 -59.45
      vertex -14.55 111.109 -59.45
    endloop
  endfacet
  facet normal 1 0 0
    outer loop
      vertex -14.55 111.15 -59.45
      vertex -14.55 111.109 -60.2964
      vertex -14.55 111.15 -60.4932
    endloop
  endfacet
  facet normal 1 -0 0
    outer loop
      vertex -14.55 111.107 -60.327
      vertex -14.55 111.15 -60.4932
      vertex -14.55 111.109 -60.2964
    endloop
  endfacet
  facet normal 1 -0 0
    outer loop
      vertex -14.55 86.1928 -60.327
      vertex -14.55 111.15 -60.4932
      vertex -14.55 111.107 -60.327
    endloop
  endfacet
  facet normal 1 0 0
    outer loop
      vertex -14.55 86.1928 -60.327
      vertex -14.55 86.15 -60.4932
      vertex -14.55 111.15 -60.4932
    endloop
  endfacet
  facet normal 1 0 0
    outer loop
      vertex -14.55 86.1912 -60.2964
      vertex -14.55 86.15 -60.4932
      vertex -14.55 86.1928 -60.327
    endloop
  endfacet
  facet normal 1 0 0
    outer loop
      vertex -14.55 86.15 -60.4932
      vertex -14.55 86.1912 -60.2964
      vertex -14.55 86.15 -59.45
    endloop
  endfacet
  facet normal 0 0 -1
    outer loop
      vertex -14.55 86.1912 -59.45
      vertex -13.5 86.15 -59.45
      vertex -14.55 86.15 -59.45
    endloop
  endfacet
  facet normal 0 0 -1
    outer loop
      vertex -10.5 86.15 -59.45
      vertex -9.54468 111.15 -59.45
      vertex -9.54468 86.15 -59.45
    endloop
  endfacet
  facet normal -0 0 -1
    outer loop
      vertex -9.54468 111.15 -59.45
      vertex -10.5 86.15 -59.45
      vertex -10.5 111.15 -59.45
    endloop
  endfacet
  facet normal 0 0 -1
    outer loop
      vertex -14.55 111.15 -59.45
      vertex -13.5 111.15 -59.45
      vertex -14.55 111.109 -59.45
    endloop
  endfacet
  facet normal -0.866025 6.13747e-08 -0.5
    outer loop
      vertex -27.625 103.15 -32.4845
      vertex -27.2881 110.15 -33.0679
      vertex -27.2269 103.15 -33.174
    endloop
  endfacet
  facet normal -0.866025 0 -0.500001
    outer loop
      vertex -27.2881 110.15 -33.0679
      vertex -27.625 103.15 -32.4845
      vertex -27.625 110.15 -32.4845
    endloop
  endfacet
  facet normal -0.866025 -6.42465e-08 -0.5
    outer loop
      vertex -27.625 111.15 -32.4845
      vertex -27.3231 114.15 -33.0073
      vertex -27.2969 111.15 -33.0528
    endloop
  endfacet
  facet normal -0.866025 0 -0.5
    outer loop
      vertex -27.3231 114.15 -33.0073
      vertex -27.625 111.15 -32.4845
      vertex -27.625 114.15 -32.4845
    endloop
  endfacet
  facet normal 0 0 -1
    outer loop
      vertex -29.375 103.15 -32.4845
      vertex -27.625 110.15 -32.4845
      vertex -27.625 103.15 -32.4845
    endloop
  endfacet
  facet normal -0 0 -1
    outer loop
      vertex -27.625 110.15 -32.4845
      vertex -29.375 103.15 -32.4845
      vertex -29.375 110.15 -32.4845
    endloop
  endfacet
  facet normal 0 0 -1
    outer loop
      vertex -29.375 111.15 -32.4845
      vertex -27.625 114.15 -32.4845
      vertex -27.625 111.15 -32.4845
    endloop
  endfacet
  facet normal -0 0 -1
    outer loop
      vertex -27.625 114.15 -32.4845
      vertex -29.375 111.15 -32.4845
      vertex -29.375 114.15 -32.4845
    endloop
  endfacet
  facet normal -0.866026 0 -0.499999
    outer loop
      vertex -27.2269 103.15 -33.174
      vertex -26.75 110.15 -34
      vertex -26.75 103.15 -34
    endloop
  endfacet
  facet normal -0.866026 3.62284e-08 -0.499999
    outer loop
      vertex -26.75 110.15 -34
      vertex -27.2269 103.15 -33.174
      vertex -27.2881 110.15 -33.0679
    endloop
  endfacet
  facet normal -0.866026 0 -0.5
    outer loop
      vertex -27.2969 111.15 -33.0528
      vertex -26.75 114.15 -34
      vertex -26.75 111.15 -34
    endloop
  endfacet
  facet normal -0.866025 -7.10107e-08 -0.5
    outer loop
      vertex -26.75 114.15 -34
      vertex -27.2969 111.15 -33.0528
      vertex -27.3231 114.15 -33.0073
    endloop
  endfacet
  facet normal 0.866026 3.62284e-08 -0.499999
    outer loop
      vertex -29.7731 103.15 -33.174
      vertex -30.25 110.15 -34
      vertex -29.7119 110.15 -33.0679
    endloop
  endfacet
  facet normal 0.866026 0 -0.499999
    outer loop
      vertex -30.25 110.15 -34
      vertex -29.7731 103.15 -33.174
      vertex -30.25 103.15 -34
    endloop
  endfacet
  facet normal 0.866025 -7.10107e-08 -0.5
    outer loop
      vertex -29.7031 111.15 -33.0528
      vertex -30.25 114.15 -34
      vertex -29.6769 114.15 -33.0073
    endloop
  endfacet
  facet normal 0.866026 0 -0.5
    outer loop
      vertex -30.25 114.15 -34
      vertex -29.7031 111.15 -33.0528
      vertex -30.25 111.15 -34
    endloop
  endfacet
  facet normal 0.866025 -0 0.500001
    outer loop
      vertex -30.25 103.15 -34
      vertex -29.9131 110.15 -34.5835
      vertex -30.25 110.15 -34
    endloop
  endfacet
  facet normal 0.866025 -6.13747e-08 0.5
    outer loop
      vertex -29.9131 110.15 -34.5835
      vertex -30.25 103.15 -34
      vertex -29.8519 103.15 -34.6896
    endloop
  endfacet
  facet normal 0.866025 -0 0.5
    outer loop
      vertex -30.25 111.15 -34
      vertex -29.9481 114.15 -34.5229
      vertex -30.25 114.15 -34
    endloop
  endfacet
  facet normal 0.866025 6.42465e-08 0.5
    outer loop
      vertex -29.9481 114.15 -34.5229
      vertex -30.25 111.15 -34
      vertex -29.9219 111.15 -34.5683
    endloop
  endfacet
  facet normal -0 0 1
    outer loop
      vertex -29.375 110.15 -35.5155
      vertex -27.625 103.15 -35.5155
      vertex -27.625 110.15 -35.5155
    endloop
  endfacet
  facet normal 0 0 1
    outer loop
      vertex -27.625 103.15 -35.5155
      vertex -29.375 110.15 -35.5155
      vertex -29.375 103.15 -35.5155
    endloop
  endfacet
  facet normal -0 0 1
    outer loop
      vertex -29.375 114.15 -35.5155
      vertex -27.625 111.15 -35.5155
      vertex -27.625 114.15 -35.5155
    endloop
  endfacet
  facet normal 0 0 1
    outer loop
      vertex -27.625 111.15 -35.5155
      vertex -29.375 114.15 -35.5155
      vertex -29.375 111.15 -35.5155
    endloop
  endfacet
  facet normal -0.866026 0 0.499999
    outer loop
      vertex -27.1481 103.15 -34.6896
      vertex -27.625 110.15 -35.5155
      vertex -27.625 103.15 -35.5155
    endloop
  endfacet
  facet normal -0.866026 -3.62284e-08 0.499999
    outer loop
      vertex -27.625 110.15 -35.5155
      vertex -27.1481 103.15 -34.6896
      vertex -27.0869 110.15 -34.5835
    endloop
  endfacet
  facet normal -0.866026 0 0.5
    outer loop
      vertex -27.0781 111.15 -34.5683
      vertex -27.625 114.15 -35.5155
      vertex -27.625 111.15 -35.5155
    endloop
  endfacet
  facet normal -0.866025 7.10107e-08 0.5
    outer loop
      vertex -27.625 114.15 -35.5155
      vertex -27.0781 111.15 -34.5683
      vertex -27.0519 114.15 -34.5229
    endloop
  endfacet
  facet normal -0.866025 -6.13747e-08 0.5
    outer loop
      vertex -26.75 103.15 -34
      vertex -27.0869 110.15 -34.5835
      vertex -27.1481 103.15 -34.6896
    endloop
  endfacet
  facet normal -0.866025 0 0.500001
    outer loop
      vertex -27.0869 110.15 -34.5835
      vertex -26.75 103.15 -34
      vertex -26.75 110.15 -34
    endloop
  endfacet
  facet normal -0.866025 6.42465e-08 0.5
    outer loop
      vertex -26.75 111.15 -34
      vertex -27.0519 114.15 -34.5229
      vertex -27.0781 111.15 -34.5683
    endloop
  endfacet
  facet normal -0.866025 0 0.5
    outer loop
      vertex -27.0519 114.15 -34.5229
      vertex -26.75 111.15 -34
      vertex -26.75 114.15 -34
    endloop
  endfacet
  facet normal 0.866026 -3.62284e-08 0.499999
    outer loop
      vertex -29.8519 103.15 -34.6896
      vertex -29.375 110.15 -35.5155
      vertex -29.9131 110.15 -34.5835
    endloop
  endfacet
  facet normal 0.866026 0 0.499999
    outer loop
      vertex -29.375 110.15 -35.5155
      vertex -29.8519 103.15 -34.6896
      vertex -29.375 103.15 -35.5155
    endloop
  endfacet
  facet normal 0.866025 7.10107e-08 0.5
    outer loop
      vertex -29.9219 111.15 -34.5683
      vertex -29.375 114.15 -35.5155
      vertex -29.9481 114.15 -34.5229
    endloop
  endfacet
  facet normal 0.866026 0 0.5
    outer loop
      vertex -29.375 114.15 -35.5155
      vertex -29.9219 111.15 -34.5683
      vertex -29.375 111.15 -35.5155
    endloop
  endfacet
  facet normal 0.866025 0 -0.500001
    outer loop
      vertex -29.375 103.15 -32.4845
      vertex -29.7119 110.15 -33.0679
      vertex -29.375 110.15 -32.4845
    endloop
  endfacet
  facet normal 0.866025 6.13747e-08 -0.5
    outer loop
      vertex -29.7119 110.15 -33.0679
      vertex -29.375 103.15 -32.4845
      vertex -29.7731 103.15 -33.174
    endloop
  endfacet
  facet normal 0.866025 0 -0.5
    outer loop
      vertex -29.375 111.15 -32.4845
      vertex -29.6769 114.15 -33.0073
      vertex -29.375 114.15 -32.4845
    endloop
  endfacet
  facet normal 0.866025 -6.42465e-08 -0.5
    outer loop
      vertex -29.6769 114.15 -33.0073
      vertex -29.375 111.15 -32.4845
      vertex -29.7031 111.15 -33.0528
    endloop
  endfacet
  facet normal -0.866025 -0.500001 0
    outer loop
      vertex -20.25 105.15 5
      vertex -21.125 106.666 7
      vertex -21.125 106.666 5
    endloop
  endfacet
  facet normal -0.866025 -0.500001 0
    outer loop
      vertex -21.125 106.666 7
      vertex -20.25 105.15 5
      vertex -20.25 105.15 7
    endloop
  endfacet
  facet normal 0 1 -0
    outer loop
      vertex -21.125 103.634 5
      vertex -22.875 103.634 7
      vertex -21.125 103.634 7
    endloop
  endfacet
  facet normal 0 1 0
    outer loop
      vertex -22.875 103.634 7
      vertex -21.125 103.634 5
      vertex -22.875 103.634 5
    endloop
  endfacet
  facet normal 0.866025 -0.500001 0
    outer loop
      vertex -23.75 105.15 7
      vertex -22.875 106.666 5
      vertex -22.875 106.666 7
    endloop
  endfacet
  facet normal 0.866025 -0.500001 0
    outer loop
      vertex -22.875 106.666 5
      vertex -23.75 105.15 7
      vertex -23.75 105.15 5
    endloop
  endfacet
  facet normal 0 -1 0
    outer loop
      vertex -22.875 106.666 5
      vertex -21.125 106.666 7
      vertex -22.875 106.666 7
    endloop
  endfacet
  facet normal 0 -1 -0
    outer loop
      vertex -21.125 106.666 7
      vertex -22.875 106.666 5
      vertex -21.125 106.666 5
    endloop
  endfacet
  facet normal 0.866026 0.499999 0
    outer loop
      vertex -22.875 103.634 7
      vertex -23.75 105.15 5
      vertex -23.75 105.15 7
    endloop
  endfacet
  facet normal 0.866026 0.499999 0
    outer loop
      vertex -23.75 105.15 5
      vertex -22.875 103.634 7
      vertex -22.875 103.634 5
    endloop
  endfacet
  facet normal -0.866026 0.499999 0
    outer loop
      vertex -21.125 103.634 5
      vertex -20.25 105.15 7
      vertex -20.25 105.15 5
    endloop
  endfacet
  facet normal -0.866026 0.499999 0
    outer loop
      vertex -20.25 105.15 7
      vertex -21.125 103.634 5
      vertex -21.125 103.634 7
    endloop
  endfacet
endsolid OpenSCAD_Model
