solid OpenSCAD_Model
  facet normal -1 0 0
    outer loop
      vertex -60 -45 -0.2
      vertex -60 45 0.2
      vertex -60 45 -0.2
    endloop
  endfacet
  facet normal -1 -0 0
    outer loop
      vertex -60 45 0.2
      vertex -60 -45 -0.2
      vertex -60 -45 0.2
    endloop
  endfacet
  facet normal 0 0 1
    outer loop
      vertex 60 45 0.2
      vertex 59 44 0.2
      vertex 60 -45 0.2
    endloop
  endfacet
  facet normal 0 0 1
    outer loop
      vertex 60 45 0.2
      vertex -59 44 0.2
      vertex 59 44 0.2
    endloop
  endfacet
  facet normal 0 0 1
    outer loop
      vertex -59 44 0.2
      vertex -60 45 0.2
      vertex -59 -44 0.2
    endloop
  endfacet
  facet normal -0 0 1
    outer loop
      vertex -60 45 0.2
      vertex -59 44 0.2
      vertex 60 45 0.2
    endloop
  endfacet
  facet normal -0 0 1
    outer loop
      vertex 59 -44 0.2
      vertex 60 -45 0.2
      vertex 59 44 0.2
    endloop
  endfacet
  facet normal -0 0 1
    outer loop
      vertex -59 -44 0.2
      vertex 60 -45 0.2
      vertex 59 -44 0.2
    endloop
  endfacet
  facet normal 0 0 1
    outer loop
      vertex -59 -44 0.2
      vertex -60 -45 0.2
      vertex 60 -45 0.2
    endloop
  endfacet
  facet normal 0 0 1
    outer loop
      vertex -60 -45 0.2
      vertex -59 -44 0.2
      vertex -60 45 0.2
    endloop
  endfacet
  facet normal 1 -0 0
    outer loop
      vertex 60 -45 0.2
      vertex 60 45 -0.2
      vertex 60 45 0.2
    endloop
  endfacet
  facet normal 1 0 0
    outer loop
      vertex 60 45 -0.2
      vertex 60 -45 0.2
      vertex 60 -45 -0.2
    endloop
  endfacet
  facet normal 0 0 -1
    outer loop
      vertex 60 -45 -0.2
      vertex 59 -44 -0.2
      vertex 60 45 -0.2
    endloop
  endfacet
  facet normal 0 0 -1
    outer loop
      vertex 60 -45 -0.2
      vertex -59 -44 -0.2
      vertex 59 -44 -0.2
    endloop
  endfacet
  facet normal -0 0 -1
    outer loop
      vertex -59 -44 -0.2
      vertex -60 -45 -0.2
      vertex -59 44 -0.2
    endloop
  endfacet
  facet normal 0 0 -1
    outer loop
      vertex -60 -45 -0.2
      vertex -59 -44 -0.2
      vertex 60 -45 -0.2
    endloop
  endfacet
  facet normal 0 0 -1
    outer loop
      vertex 59 44 -0.2
      vertex 60 45 -0.2
      vertex 59 -44 -0.2
    endloop
  endfacet
  facet normal 0 0 -1
    outer loop
      vertex -59 44 -0.2
      vertex 60 45 -0.2
      vertex 59 44 -0.2
    endloop
  endfacet
  facet normal 0 0 -1
    outer loop
      vertex -59 44 -0.2
      vertex -60 45 -0.2
      vertex 60 45 -0.2
    endloop
  endfacet
  facet normal 0 0 -1
    outer loop
      vertex -60 45 -0.2
      vertex -59 44 -0.2
      vertex -60 -45 -0.2
    endloop
  endfacet
  facet normal 0 -1 0
    outer loop
      vertex -60 -45 -0.2
      vertex 60 -45 0.2
      vertex -60 -45 0.2
    endloop
  endfacet
  facet normal 0 -1 -0
    outer loop
      vertex 60 -45 0.2
      vertex -60 -45 -0.2
      vertex 60 -45 -0.2
    endloop
  endfacet
  facet normal 0 1 -0
    outer loop
      vertex 60 45 -0.2
      vertex -60 45 0.2
      vertex 60 45 0.2
    endloop
  endfacet
  facet normal 0 1 0
    outer loop
      vertex -60 45 0.2
      vertex 60 45 -0.2
      vertex -60 45 -0.2
    endloop
  endfacet
  facet normal 1 -0 0
    outer loop
      vertex -59 -44 0.2
      vertex -59 44 -0.2
      vertex -59 44 0.2
    endloop
  endfacet
  facet normal 1 0 0
    outer loop
      vertex -59 44 -0.2
      vertex -59 -44 0.2
      vertex -59 -44 -0.2
    endloop
  endfacet
  facet normal -1 0 0
    outer loop
      vertex 59 -44 -0.2
      vertex 59 44 0.2
      vertex 59 44 -0.2
    endloop
  endfacet
  facet normal -1 -0 0
    outer loop
      vertex 59 44 0.2
      vertex 59 -44 -0.2
      vertex 59 -44 0.2
    endloop
  endfacet
  facet normal 0 1 -0
    outer loop
      vertex 59 -44 -0.2
      vertex -59 -44 0.2
      vertex 59 -44 0.2
    endloop
  endfacet
  facet normal 0 1 0
    outer loop
      vertex -59 -44 0.2
      vertex 59 -44 -0.2
      vertex -59 -44 -0.2
    endloop
  endfacet
  facet normal 0 -1 0
    outer loop
      vertex -59 44 -0.2
      vertex 59 44 0.2
      vertex -59 44 0.2
    endloop
  endfacet
  facet normal 0 -1 -0
    outer loop
      vertex 59 44 0.2
      vertex -59 44 -0.2
      vertex 59 44 -0.2
    endloop
  endfacet
endsolid OpenSCAD_Model
